# generated by solar_farm_gz.site
v -6.1025 -12.3404 0.0200
v 25.5492 -12.3404 0.0200
v 25.5492 -8.3404 0.0200
v -6.1025 -8.3404 0.0200
v -6.1025 115.3427 0.0200
v 25.5492 115.3427 0.0200
v 25.5492 119.3427 0.0200
v -6.1025 119.3427 0.0200
v -8.1025 -10.3404 0.0200
v -4.1025 -10.3404 0.0200
v -4.1025 117.3427 0.0200
v -8.1025 117.3427 0.0200
v 23.5492 -10.3404 0.0200
v 27.5492 -10.3404 0.0200
v 27.5492 117.3427 0.0200
v 23.5492 117.3427 0.0200
vt 0.00000 0.00000
vt 5.27527 0.00000
vt 5.27527 1.00000
vt 0.00000 1.00000
vt 0.00000 0.00000
vt 5.27527 0.00000
vt 5.27527 1.00000
vt 0.00000 1.00000
vt 0.00000 0.00000
vt 1.00000 0.00000
vt 1.00000 21.28052
vt 0.00000 21.28052
vt 0.00000 0.00000
vt 1.00000 0.00000
vt 1.00000 21.28052
vt 0.00000 21.28052
vn 0.0000 0.0000 1.0000
f 1/1/1 2/2/1 3/3/1 4/4/1
f 5/5/1 6/6/1 7/7/1 8/8/1
f 9/9/1 10/10/1 11/11/1 12/12/1
f 13/13/1 14/14/1 15/15/1 16/16/1
