# generated by solar_farm_gz.site
v -9.1580 -13.4196 0.0000
v -9.0980 -13.4196 0.0000
v -9.0980 -13.3596 0.0000
v -9.1580 -13.3596 0.0000
v -9.1580 -13.4196 2.1800
v -9.0980 -13.4196 2.1800
v -9.0980 -13.3596 2.1800
v -9.1580 -13.3596 2.1800
v -6.2070 -13.4196 0.0000
v -6.1470 -13.4196 0.0000
v -6.1470 -13.3596 0.0000
v -6.2070 -13.3596 0.0000
v -6.2070 -13.4196 2.1800
v -6.1470 -13.4196 2.1800
v -6.1470 -13.3596 2.1800
v -6.2070 -13.3596 2.1800
v -3.2561 -13.4196 0.0000
v -3.1961 -13.4196 0.0000
v -3.1961 -13.3596 0.0000
v -3.2561 -13.3596 0.0000
v -3.2561 -13.4196 2.1800
v -3.1961 -13.4196 2.1800
v -3.1961 -13.3596 2.1800
v -3.2561 -13.3596 2.1800
v -0.3051 -13.4196 0.0000
v -0.2451 -13.4196 0.0000
v -0.2451 -13.3596 0.0000
v -0.3051 -13.3596 0.0000
v -0.3051 -13.4196 2.1800
v -0.2451 -13.4196 2.1800
v -0.2451 -13.3596 2.1800
v -0.3051 -13.3596 2.1800
v 2.6459 -13.4196 0.0000
v 2.7059 -13.4196 0.0000
v 2.7059 -13.3596 0.0000
v 2.6459 -13.3596 0.0000
v 2.6459 -13.4196 2.1800
v 2.7059 -13.4196 2.1800
v 2.7059 -13.3596 2.1800
v 2.6459 -13.3596 2.1800
v 5.5968 -13.4196 0.0000
v 5.6568 -13.4196 0.0000
v 5.6568 -13.3596 0.0000
v 5.5968 -13.3596 0.0000
v 5.5968 -13.4196 2.1800
v 5.6568 -13.4196 2.1800
v 5.6568 -13.3596 2.1800
v 5.5968 -13.3596 2.1800
v 8.5478 -13.4196 0.0000
v 8.6078 -13.4196 0.0000
v 8.6078 -13.3596 0.0000
v 8.5478 -13.3596 0.0000
v 8.5478 -13.4196 2.1800
v 8.6078 -13.4196 2.1800
v 8.6078 -13.3596 2.1800
v 8.5478 -13.3596 2.1800
v 11.4987 -13.4196 0.0000
v 11.5587 -13.4196 0.0000
v 11.5587 -13.3596 0.0000
v 11.4987 -13.3596 0.0000
v 11.4987 -13.4196 2.1800
v 11.5587 -13.4196 2.1800
v 11.5587 -13.3596 2.1800
v 11.4987 -13.3596 2.1800
v 14.4497 -13.4196 0.0000
v 14.5097 -13.4196 0.0000
v 14.5097 -13.3596 0.0000
v 14.4497 -13.3596 0.0000
v 14.4497 -13.4196 2.1800
v 14.5097 -13.4196 2.1800
v 14.5097 -13.3596 2.1800
v 14.4497 -13.3596 2.1800
v 17.4006 -13.4196 0.0000
v 17.4606 -13.4196 0.0000
v 17.4606 -13.3596 0.0000
v 17.4006 -13.3596 0.0000
v 17.4006 -13.4196 2.1800
v 17.4606 -13.4196 2.1800
v 17.4606 -13.3596 2.1800
v 17.4006 -13.3596 2.1800
v 20.3516 -13.4196 0.0000
v 20.4116 -13.4196 0.0000
v 20.4116 -13.3596 0.0000
v 20.3516 -13.3596 0.0000
v 20.3516 -13.4196 2.1800
v 20.4116 -13.4196 2.1800
v 20.4116 -13.3596 2.1800
v 20.3516 -13.3596 2.1800
v 23.3026 -13.4196 0.0000
v 23.3626 -13.4196 0.0000
v 23.3626 -13.3596 0.0000
v 23.3026 -13.3596 0.0000
v 23.3026 -13.4196 2.1800
v 23.3626 -13.4196 2.1800
v 23.3626 -13.3596 2.1800
v 23.3026 -13.3596 2.1800
v 26.2535 -13.4196 0.0000
v 26.3135 -13.4196 0.0000
v 26.3135 -13.3596 0.0000
v 26.2535 -13.3596 0.0000
v 26.2535 -13.4196 2.1800
v 26.3135 -13.4196 2.1800
v 26.3135 -13.3596 2.1800
v 26.2535 -13.3596 2.1800
v 29.2045 -13.4196 0.0000
v 29.2645 -13.4196 0.0000
v 29.2645 -13.3596 0.0000
v 29.2045 -13.3596 0.0000
v 29.2045 -13.4196 2.1800
v 29.2645 -13.4196 2.1800
v 29.2645 -13.3596 2.1800
v 29.2045 -13.3596 2.1800
v 32.1554 -13.4196 0.0000
v 32.2154 -13.4196 0.0000
v 32.2154 -13.3596 0.0000
v 32.1554 -13.3596 0.0000
v 32.1554 -13.4196 2.1800
v 32.2154 -13.4196 2.1800
v 32.2154 -13.3596 2.1800
v 32.1554 -13.3596 2.1800
v 35.1064 -13.4196 0.0000
v 35.1664 -13.4196 0.0000
v 35.1664 -13.3596 0.0000
v 35.1064 -13.3596 0.0000
v 35.1064 -13.4196 2.1800
v 35.1664 -13.4196 2.1800
v 35.1664 -13.3596 2.1800
v 35.1064 -13.3596 2.1800
v 38.0574 -13.4196 0.0000
v 38.1174 -13.4196 0.0000
v 38.1174 -13.3596 0.0000
v 38.0574 -13.3596 0.0000
v 38.0574 -13.4196 2.1800
v 38.1174 -13.4196 2.1800
v 38.1174 -13.3596 2.1800
v 38.0574 -13.3596 2.1800
v 41.0083 -13.4196 0.0000
v 41.0683 -13.4196 0.0000
v 41.0683 -13.3596 0.0000
v 41.0083 -13.3596 0.0000
v 41.0083 -13.4196 2.1800
v 41.0683 -13.4196 2.1800
v 41.0683 -13.3596 2.1800
v 41.0083 -13.3596 2.1800
v 43.9593 -13.4196 0.0000
v 44.0193 -13.4196 0.0000
v 44.0193 -13.3596 0.0000
v 43.9593 -13.3596 0.0000
v 43.9593 -13.4196 2.1800
v 44.0193 -13.4196 2.1800
v 44.0193 -13.3596 2.1800
v 43.9593 -13.3596 2.1800
v 46.9102 -13.4196 0.0000
v 46.9702 -13.4196 0.0000
v 46.9702 -13.3596 0.0000
v 46.9102 -13.3596 0.0000
v 46.9102 -13.4196 2.1800
v 46.9702 -13.4196 2.1800
v 46.9702 -13.3596 2.1800
v 46.9102 -13.3596 2.1800
v 49.8612 -13.4196 0.0000
v 49.9212 -13.4196 0.0000
v 49.9212 -13.3596 0.0000
v 49.8612 -13.3596 0.0000
v 49.8612 -13.4196 2.1800
v 49.9212 -13.4196 2.1800
v 49.9212 -13.3596 2.1800
v 49.8612 -13.3596 2.1800
v 52.8121 -13.4196 0.0000
v 52.8721 -13.4196 0.0000
v 52.8721 -13.3596 0.0000
v 52.8121 -13.3596 0.0000
v 52.8121 -13.4196 2.1800
v 52.8721 -13.4196 2.1800
v 52.8721 -13.3596 2.1800
v 52.8121 -13.3596 2.1800
v 55.7631 -13.4196 0.0000
v 55.8231 -13.4196 0.0000
v 55.8231 -13.3596 0.0000
v 55.7631 -13.3596 0.0000
v 55.7631 -13.4196 2.1800
v 55.8231 -13.4196 2.1800
v 55.8231 -13.3596 2.1800
v 55.7631 -13.3596 2.1800
v 58.7141 -13.4196 0.0000
v 58.7741 -13.4196 0.0000
v 58.7741 -13.3596 0.0000
v 58.7141 -13.3596 0.0000
v 58.7141 -13.4196 2.1800
v 58.7741 -13.4196 2.1800
v 58.7741 -13.3596 2.1800
v 58.7141 -13.3596 2.1800
v 61.6650 -13.4196 0.0000
v 61.7250 -13.4196 0.0000
v 61.7250 -13.3596 0.0000
v 61.6650 -13.3596 0.0000
v 61.6650 -13.4196 2.1800
v 61.7250 -13.4196 2.1800
v 61.7250 -13.3596 2.1800
v 61.6650 -13.3596 2.1800
v 64.6160 -13.4196 0.0000
v 64.6760 -13.4196 0.0000
v 64.6760 -13.3596 0.0000
v 64.6160 -13.3596 0.0000
v 64.6160 -13.4196 2.1800
v 64.6760 -13.4196 2.1800
v 64.6760 -13.3596 2.1800
v 64.6160 -13.3596 2.1800
v 67.5669 -13.4196 0.0000
v 67.6269 -13.4196 0.0000
v 67.6269 -13.3596 0.0000
v 67.5669 -13.3596 0.0000
v 67.5669 -13.4196 2.1800
v 67.6269 -13.4196 2.1800
v 67.6269 -13.3596 2.1800
v 67.5669 -13.3596 2.1800
v 67.5669 -13.4196 0.0000
v 67.6269 -13.4196 0.0000
v 67.6269 -13.3596 0.0000
v 67.5669 -13.3596 0.0000
v 67.5669 -13.4196 2.1800
v 67.6269 -13.4196 2.1800
v 67.6269 -13.3596 2.1800
v 67.5669 -13.3596 2.1800
v 67.5669 -10.4488 0.0000
v 67.6269 -10.4488 0.0000
v 67.6269 -10.3888 0.0000
v 67.5669 -10.3888 0.0000
v 67.5669 -10.4488 2.1800
v 67.6269 -10.4488 2.1800
v 67.6269 -10.3888 2.1800
v 67.5669 -10.3888 2.1800
v 67.5669 -7.4779 0.0000
v 67.6269 -7.4779 0.0000
v 67.6269 -7.4179 0.0000
v 67.5669 -7.4179 0.0000
v 67.5669 -7.4779 2.1800
v 67.6269 -7.4779 2.1800
v 67.6269 -7.4179 2.1800
v 67.5669 -7.4179 2.1800
v 67.5669 -4.5070 0.0000
v 67.6269 -4.5070 0.0000
v 67.6269 -4.4470 0.0000
v 67.5669 -4.4470 0.0000
v 67.5669 -4.5070 2.1800
v 67.6269 -4.5070 2.1800
v 67.6269 -4.4470 2.1800
v 67.5669 -4.4470 2.1800
v 67.5669 -1.5361 0.0000
v 67.6269 -1.5361 0.0000
v 67.6269 -1.4761 0.0000
v 67.5669 -1.4761 0.0000
v 67.5669 -1.5361 2.1800
v 67.6269 -1.5361 2.1800
v 67.6269 -1.4761 2.1800
v 67.5669 -1.4761 2.1800
v 67.5669 1.4347 0.0000
v 67.6269 1.4347 0.0000
v 67.6269 1.4947 0.0000
v 67.5669 1.4947 0.0000
v 67.5669 1.4347 2.1800
v 67.6269 1.4347 2.1800
v 67.6269 1.4947 2.1800
v 67.5669 1.4947 2.1800
v 67.5669 4.4056 0.0000
v 67.6269 4.4056 0.0000
v 67.6269 4.4656 0.0000
v 67.5669 4.4656 0.0000
v 67.5669 4.4056 2.1800
v 67.6269 4.4056 2.1800
v 67.6269 4.4656 2.1800
v 67.5669 4.4656 2.1800
v 67.5669 7.3765 0.0000
v 67.6269 7.3765 0.0000
v 67.6269 7.4365 0.0000
v 67.5669 7.4365 0.0000
v 67.5669 7.3765 2.1800
v 67.6269 7.3765 2.1800
v 67.6269 7.4365 2.1800
v 67.5669 7.4365 2.1800
v 67.5669 10.3474 0.0000
v 67.6269 10.3474 0.0000
v 67.6269 10.4074 0.0000
v 67.5669 10.4074 0.0000
v 67.5669 10.3474 2.1800
v 67.6269 10.3474 2.1800
v 67.6269 10.4074 2.1800
v 67.5669 10.4074 2.1800
v 67.5669 13.3182 0.0000
v 67.6269 13.3182 0.0000
v 67.6269 13.3782 0.0000
v 67.5669 13.3782 0.0000
v 67.5669 13.3182 2.1800
v 67.6269 13.3182 2.1800
v 67.6269 13.3782 2.1800
v 67.5669 13.3782 2.1800
v 67.5669 16.2891 0.0000
v 67.6269 16.2891 0.0000
v 67.6269 16.3491 0.0000
v 67.5669 16.3491 0.0000
v 67.5669 16.2891 2.1800
v 67.6269 16.2891 2.1800
v 67.6269 16.3491 2.1800
v 67.5669 16.3491 2.1800
v 67.5669 19.2600 0.0000
v 67.6269 19.2600 0.0000
v 67.6269 19.3200 0.0000
v 67.5669 19.3200 0.0000
v 67.5669 19.2600 2.1800
v 67.6269 19.2600 2.1800
v 67.6269 19.3200 2.1800
v 67.5669 19.3200 2.1800
v 67.5669 22.2309 0.0000
v 67.6269 22.2309 0.0000
v 67.6269 22.2909 0.0000
v 67.5669 22.2909 0.0000
v 67.5669 22.2309 2.1800
v 67.6269 22.2309 2.1800
v 67.6269 22.2909 2.1800
v 67.5669 22.2909 2.1800
v 67.5669 25.2017 0.0000
v 67.6269 25.2017 0.0000
v 67.6269 25.2617 0.0000
v 67.5669 25.2617 0.0000
v 67.5669 25.2017 2.1800
v 67.6269 25.2017 2.1800
v 67.6269 25.2617 2.1800
v 67.5669 25.2617 2.1800
v 67.5669 28.1726 0.0000
v 67.6269 28.1726 0.0000
v 67.6269 28.2326 0.0000
v 67.5669 28.2326 0.0000
v 67.5669 28.1726 2.1800
v 67.6269 28.1726 2.1800
v 67.6269 28.2326 2.1800
v 67.5669 28.2326 2.1800
v 67.5669 31.1435 0.0000
v 67.6269 31.1435 0.0000
v 67.6269 31.2035 0.0000
v 67.5669 31.2035 0.0000
v 67.5669 31.1435 2.1800
v 67.6269 31.1435 2.1800
v 67.6269 31.2035 2.1800
v 67.5669 31.2035 2.1800
v 67.5669 34.1144 0.0000
v 67.6269 34.1144 0.0000
v 67.6269 34.1744 0.0000
v 67.5669 34.1744 0.0000
v 67.5669 34.1144 2.1800
v 67.6269 34.1144 2.1800
v 67.6269 34.1744 2.1800
v 67.5669 34.1744 2.1800
v 67.5669 37.0852 0.0000
v 67.6269 37.0852 0.0000
v 67.6269 37.1452 0.0000
v 67.5669 37.1452 0.0000
v 67.5669 37.0852 2.1800
v 67.6269 37.0852 2.1800
v 67.6269 37.1452 2.1800
v 67.5669 37.1452 2.1800
v 67.5669 40.0561 0.0000
v 67.6269 40.0561 0.0000
v 67.6269 40.1161 0.0000
v 67.5669 40.1161 0.0000
v 67.5669 40.0561 2.1800
v 67.6269 40.0561 2.1800
v 67.6269 40.1161 2.1800
v 67.5669 40.1161 2.1800
v 67.5669 43.0270 0.0000
v 67.6269 43.0270 0.0000
v 67.6269 43.0870 0.0000
v 67.5669 43.0870 0.0000
v 67.5669 43.0270 2.1800
v 67.6269 43.0270 2.1800
v 67.6269 43.0870 2.1800
v 67.5669 43.0870 2.1800
v 67.5669 45.9979 0.0000
v 67.6269 45.9979 0.0000
v 67.6269 46.0579 0.0000
v 67.5669 46.0579 0.0000
v 67.5669 45.9979 2.1800
v 67.6269 45.9979 2.1800
v 67.6269 46.0579 2.1800
v 67.5669 46.0579 2.1800
v 67.5669 48.9687 0.0000
v 67.6269 48.9687 0.0000
v 67.6269 49.0287 0.0000
v 67.5669 49.0287 0.0000
v 67.5669 48.9687 2.1800
v 67.6269 48.9687 2.1800
v 67.6269 49.0287 2.1800
v 67.5669 49.0287 2.1800
v 67.5669 51.9396 0.0000
v 67.6269 51.9396 0.0000
v 67.6269 51.9996 0.0000
v 67.5669 51.9996 0.0000
v 67.5669 51.9396 2.1800
v 67.6269 51.9396 2.1800
v 67.6269 51.9996 2.1800
v 67.5669 51.9996 2.1800
v 67.5669 54.9105 0.0000
v 67.6269 54.9105 0.0000
v 67.6269 54.9705 0.0000
v 67.5669 54.9705 0.0000
v 67.5669 54.9105 2.1800
v 67.6269 54.9105 2.1800
v 67.6269 54.9705 2.1800
v 67.5669 54.9705 2.1800
v 67.5669 57.8814 0.0000
v 67.6269 57.8814 0.0000
v 67.6269 57.9414 0.0000
v 67.5669 57.9414 0.0000
v 67.5669 57.8814 2.1800
v 67.6269 57.8814 2.1800
v 67.6269 57.9414 2.1800
v 67.5669 57.9414 2.1800
v 67.5669 60.8522 0.0000
v 67.6269 60.8522 0.0000
v 67.6269 60.9122 0.0000
v 67.5669 60.9122 0.0000
v 67.5669 60.8522 2.1800
v 67.6269 60.8522 2.1800
v 67.6269 60.9122 2.1800
v 67.5669 60.9122 2.1800
v 67.5669 63.8231 0.0000
v 67.6269 63.8231 0.0000
v 67.6269 63.8831 0.0000
v 67.5669 63.8831 0.0000
v 67.5669 63.8231 2.1800
v 67.6269 63.8231 2.1800
v 67.6269 63.8831 2.1800
v 67.5669 63.8831 2.1800
v 67.5669 66.7940 0.0000
v 67.6269 66.7940 0.0000
v 67.6269 66.8540 0.0000
v 67.5669 66.8540 0.0000
v 67.5669 66.7940 2.1800
v 67.6269 66.7940 2.1800
v 67.6269 66.8540 2.1800
v 67.5669 66.8540 2.1800
v 67.5669 69.7649 0.0000
v 67.6269 69.7649 0.0000
v 67.6269 69.8249 0.0000
v 67.5669 69.8249 0.0000
v 67.5669 69.7649 2.1800
v 67.6269 69.7649 2.1800
v 67.6269 69.8249 2.1800
v 67.5669 69.8249 2.1800
v 67.5669 72.7357 0.0000
v 67.6269 72.7357 0.0000
v 67.6269 72.7957 0.0000
v 67.5669 72.7957 0.0000
v 67.5669 72.7357 2.1800
v 67.6269 72.7357 2.1800
v 67.6269 72.7957 2.1800
v 67.5669 72.7957 2.1800
v 67.5669 75.7066 0.0000
v 67.6269 75.7066 0.0000
v 67.6269 75.7666 0.0000
v 67.5669 75.7666 0.0000
v 67.5669 75.7066 2.1800
v 67.6269 75.7066 2.1800
v 67.6269 75.7666 2.1800
v 67.5669 75.7666 2.1800
v 67.5669 78.6775 0.0000
v 67.6269 78.6775 0.0000
v 67.6269 78.7375 0.0000
v 67.5669 78.7375 0.0000
v 67.5669 78.6775 2.1800
v 67.6269 78.6775 2.1800
v 67.6269 78.7375 2.1800
v 67.5669 78.7375 2.1800
v 67.5669 81.6484 0.0000
v 67.6269 81.6484 0.0000
v 67.6269 81.7084 0.0000
v 67.5669 81.7084 0.0000
v 67.5669 81.6484 2.1800
v 67.6269 81.6484 2.1800
v 67.6269 81.7084 2.1800
v 67.5669 81.7084 2.1800
v 67.5669 84.6192 0.0000
v 67.6269 84.6192 0.0000
v 67.6269 84.6792 0.0000
v 67.5669 84.6792 0.0000
v 67.5669 84.6192 2.1800
v 67.6269 84.6192 2.1800
v 67.6269 84.6792 2.1800
v 67.5669 84.6792 2.1800
v 67.5669 87.5901 0.0000
v 67.6269 87.5901 0.0000
v 67.6269 87.6501 0.0000
v 67.5669 87.6501 0.0000
v 67.5669 87.5901 2.1800
v 67.6269 87.5901 2.1800
v 67.6269 87.6501 2.1800
v 67.5669 87.6501 2.1800
v 67.5669 90.5610 0.0000
v 67.6269 90.5610 0.0000
v 67.6269 90.6210 0.0000
v 67.5669 90.6210 0.0000
v 67.5669 90.5610 2.1800
v 67.6269 90.5610 2.1800
v 67.6269 90.6210 2.1800
v 67.5669 90.6210 2.1800
v 67.5669 93.5319 0.0000
v 67.6269 93.5319 0.0000
v 67.6269 93.5919 0.0000
v 67.5669 93.5919 0.0000
v 67.5669 93.5319 2.1800
v 67.6269 93.5319 2.1800
v 67.6269 93.5919 2.1800
v 67.5669 93.5919 2.1800
v 67.5669 96.5027 0.0000
v 67.6269 96.5027 0.0000
v 67.6269 96.5627 0.0000
v 67.5669 96.5627 0.0000
v 67.5669 96.5027 2.1800
v 67.6269 96.5027 2.1800
v 67.6269 96.5627 2.1800
v 67.5669 96.5627 2.1800
v 67.5669 99.4736 0.0000
v 67.6269 99.4736 0.0000
v 67.6269 99.5336 0.0000
v 67.5669 99.5336 0.0000
v 67.5669 99.4736 2.1800
v 67.6269 99.4736 2.1800
v 67.6269 99.5336 2.1800
v 67.5669 99.5336 2.1800
v 67.5669 102.4445 0.0000
v 67.6269 102.4445 0.0000
v 67.6269 102.5045 0.0000
v 67.5669 102.5045 0.0000
v 67.5669 102.4445 2.1800
v 67.6269 102.4445 2.1800
v 67.6269 102.5045 2.1800
v 67.5669 102.5045 2.1800
v 67.5669 105.4154 0.0000
v 67.6269 105.4154 0.0000
v 67.6269 105.4754 0.0000
v 67.5669 105.4754 0.0000
v 67.5669 105.4154 2.1800
v 67.6269 105.4154 2.1800
v 67.6269 105.4754 2.1800
v 67.5669 105.4754 2.1800
v 67.5669 108.3862 0.0000
v 67.6269 108.3862 0.0000
v 67.6269 108.4462 0.0000
v 67.5669 108.4462 0.0000
v 67.5669 108.3862 2.1800
v 67.6269 108.3862 2.1800
v 67.6269 108.4462 2.1800
v 67.5669 108.4462 2.1800
v 67.5669 111.3571 0.0000
v 67.6269 111.3571 0.0000
v 67.6269 111.4171 0.0000
v 67.5669 111.4171 0.0000
v 67.5669 111.3571 2.1800
v 67.6269 111.3571 2.1800
v 67.6269 111.4171 2.1800
v 67.5669 111.4171 2.1800
v 67.5669 114.3280 0.0000
v 67.6269 114.3280 0.0000
v 67.6269 114.3880 0.0000
v 67.5669 114.3880 0.0000
v 67.5669 114.3280 2.1800
v 67.6269 114.3280 2.1800
v 67.6269 114.3880 2.1800
v 67.5669 114.3880 2.1800
v 67.5669 117.2989 0.0000
v 67.6269 117.2989 0.0000
v 67.6269 117.3589 0.0000
v 67.5669 117.3589 0.0000
v 67.5669 117.2989 2.1800
v 67.6269 117.2989 2.1800
v 67.6269 117.3589 2.1800
v 67.5669 117.3589 2.1800
v 67.5669 120.2697 0.0000
v 67.6269 120.2697 0.0000
v 67.6269 120.3297 0.0000
v 67.5669 120.3297 0.0000
v 67.5669 120.2697 2.1800
v 67.6269 120.2697 2.1800
v 67.6269 120.3297 2.1800
v 67.5669 120.3297 2.1800
v 67.5669 120.2697 0.0000
v 67.6269 120.2697 0.0000
v 67.6269 120.3297 0.0000
v 67.5669 120.3297 0.0000
v 67.5669 120.2697 2.1800
v 67.6269 120.2697 2.1800
v 67.6269 120.3297 2.1800
v 67.5669 120.3297 2.1800
v 64.6160 120.2697 0.0000
v 64.6760 120.2697 0.0000
v 64.6760 120.3297 0.0000
v 64.6160 120.3297 0.0000
v 64.6160 120.2697 2.1800
v 64.6760 120.2697 2.1800
v 64.6760 120.3297 2.1800
v 64.6160 120.3297 2.1800
v 61.6650 120.2697 0.0000
v 61.7250 120.2697 0.0000
v 61.7250 120.3297 0.0000
v 61.6650 120.3297 0.0000
v 61.6650 120.2697 2.1800
v 61.7250 120.2697 2.1800
v 61.7250 120.3297 2.1800
v 61.6650 120.3297 2.1800
v 58.7141 120.2697 0.0000
v 58.7741 120.2697 0.0000
v 58.7741 120.3297 0.0000
v 58.7141 120.3297 0.0000
v 58.7141 120.2697 2.1800
v 58.7741 120.2697 2.1800
v 58.7741 120.3297 2.1800
v 58.7141 120.3297 2.1800
v 55.7631 120.2697 0.0000
v 55.8231 120.2697 0.0000
v 55.8231 120.3297 0.0000
v 55.7631 120.3297 0.0000
v 55.7631 120.2697 2.1800
v 55.8231 120.2697 2.1800
v 55.8231 120.3297 2.1800
v 55.7631 120.3297 2.1800
v 52.8121 120.2697 0.0000
v 52.8721 120.2697 0.0000
v 52.8721 120.3297 0.0000
v 52.8121 120.3297 0.0000
v 52.8121 120.2697 2.1800
v 52.8721 120.2697 2.1800
v 52.8721 120.3297 2.1800
v 52.8121 120.3297 2.1800
v 49.8612 120.2697 0.0000
v 49.9212 120.2697 0.0000
v 49.9212 120.3297 0.0000
v 49.8612 120.3297 0.0000
v 49.8612 120.2697 2.1800
v 49.9212 120.2697 2.1800
v 49.9212 120.3297 2.1800
v 49.8612 120.3297 2.1800
v 46.9102 120.2697 0.0000
v 46.9702 120.2697 0.0000
v 46.9702 120.3297 0.0000
v 46.9102 120.3297 0.0000
v 46.9102 120.2697 2.1800
v 46.9702 120.2697 2.1800
v 46.9702 120.3297 2.1800
v 46.9102 120.3297 2.1800
v 43.9593 120.2697 0.0000
v 44.0193 120.2697 0.0000
v 44.0193 120.3297 0.0000
v 43.9593 120.3297 0.0000
v 43.9593 120.2697 2.1800
v 44.0193 120.2697 2.1800
v 44.0193 120.3297 2.1800
v 43.9593 120.3297 2.1800
v 41.0083 120.2697 0.0000
v 41.0683 120.2697 0.0000
v 41.0683 120.3297 0.0000
v 41.0083 120.3297 0.0000
v 41.0083 120.2697 2.1800
v 41.0683 120.2697 2.1800
v 41.0683 120.3297 2.1800
v 41.0083 120.3297 2.1800
v 38.0574 120.2697 0.0000
v 38.1174 120.2697 0.0000
v 38.1174 120.3297 0.0000
v 38.0574 120.3297 0.0000
v 38.0574 120.2697 2.1800
v 38.1174 120.2697 2.1800
v 38.1174 120.3297 2.1800
v 38.0574 120.3297 2.1800
v 35.1064 120.2697 0.0000
v 35.1664 120.2697 0.0000
v 35.1664 120.3297 0.0000
v 35.1064 120.3297 0.0000
v 35.1064 120.2697 2.1800
v 35.1664 120.2697 2.1800
v 35.1664 120.3297 2.1800
v 35.1064 120.3297 2.1800
v 32.1554 120.2697 0.0000
v 32.2154 120.2697 0.0000
v 32.2154 120.3297 0.0000
v 32.1554 120.3297 0.0000
v 32.1554 120.2697 2.1800
v 32.2154 120.2697 2.1800
v 32.2154 120.3297 2.1800
v 32.1554 120.3297 2.1800
v 29.2045 120.2697 0.0000
v 29.2645 120.2697 0.0000
v 29.2645 120.3297 0.0000
v 29.2045 120.3297 0.0000
v 29.2045 120.2697 2.1800
v 29.2645 120.2697 2.1800
v 29.2645 120.3297 2.1800
v 29.2045 120.3297 2.1800
v 26.2535 120.2697 0.0000
v 26.3135 120.2697 0.0000
v 26.3135 120.3297 0.0000
v 26.2535 120.3297 0.0000
v 26.2535 120.2697 2.1800
v 26.3135 120.2697 2.1800
v 26.3135 120.3297 2.1800
v 26.2535 120.3297 2.1800
v 23.3026 120.2697 0.0000
v 23.3626 120.2697 0.0000
v 23.3626 120.3297 0.0000
v 23.3026 120.3297 0.0000
v 23.3026 120.2697 2.1800
v 23.3626 120.2697 2.1800
v 23.3626 120.3297 2.1800
v 23.3026 120.3297 2.1800
v 20.3516 120.2697 0.0000
v 20.4116 120.2697 0.0000
v 20.4116 120.3297 0.0000
v 20.3516 120.3297 0.0000
v 20.3516 120.2697 2.1800
v 20.4116 120.2697 2.1800
v 20.4116 120.3297 2.1800
v 20.3516 120.3297 2.1800
v 17.4006 120.2697 0.0000
v 17.4606 120.2697 0.0000
v 17.4606 120.3297 0.0000
v 17.4006 120.3297 0.0000
v 17.4006 120.2697 2.1800
v 17.4606 120.2697 2.1800
v 17.4606 120.3297 2.1800
v 17.4006 120.3297 2.1800
v 14.4497 120.2697 0.0000
v 14.5097 120.2697 0.0000
v 14.5097 120.3297 0.0000
v 14.4497 120.3297 0.0000
v 14.4497 120.2697 2.1800
v 14.5097 120.2697 2.1800
v 14.5097 120.3297 2.1800
v 14.4497 120.3297 2.1800
v 11.4987 120.2697 0.0000
v 11.5587 120.2697 0.0000
v 11.5587 120.3297 0.0000
v 11.4987 120.3297 0.0000
v 11.4987 120.2697 2.1800
v 11.5587 120.2697 2.1800
v 11.5587 120.3297 2.1800
v 11.4987 120.3297 2.1800
v 8.5478 120.2697 0.0000
v 8.6078 120.2697 0.0000
v 8.6078 120.3297 0.0000
v 8.5478 120.3297 0.0000
v 8.5478 120.2697 2.1800
v 8.6078 120.2697 2.1800
v 8.6078 120.3297 2.1800
v 8.5478 120.3297 2.1800
v 5.5968 120.2697 0.0000
v 5.6568 120.2697 0.0000
v 5.6568 120.3297 0.0000
v 5.5968 120.3297 0.0000
v 5.5968 120.2697 2.1800
v 5.6568 120.2697 2.1800
v 5.6568 120.3297 2.1800
v 5.5968 120.3297 2.1800
v 2.6459 120.2697 0.0000
v 2.7059 120.2697 0.0000
v 2.7059 120.3297 0.0000
v 2.6459 120.3297 0.0000
v 2.6459 120.2697 2.1800
v 2.7059 120.2697 2.1800
v 2.7059 120.3297 2.1800
v 2.6459 120.3297 2.1800
v -0.3051 120.2697 0.0000
v -0.2451 120.2697 0.0000
v -0.2451 120.3297 0.0000
v -0.3051 120.3297 0.0000
v -0.3051 120.2697 2.1800
v -0.2451 120.2697 2.1800
v -0.2451 120.3297 2.1800
v -0.3051 120.3297 2.1800
v -3.2561 120.2697 0.0000
v -3.1961 120.2697 0.0000
v -3.1961 120.3297 0.0000
v -3.2561 120.3297 0.0000
v -3.2561 120.2697 2.1800
v -3.1961 120.2697 2.1800
v -3.1961 120.3297 2.1800
v -3.2561 120.3297 2.1800
v -6.2070 120.2697 0.0000
v -6.1470 120.2697 0.0000
v -6.1470 120.3297 0.0000
v -6.2070 120.3297 0.0000
v -6.2070 120.2697 2.1800
v -6.1470 120.2697 2.1800
v -6.1470 120.3297 2.1800
v -6.2070 120.3297 2.1800
v -9.1580 120.2697 0.0000
v -9.0980 120.2697 0.0000
v -9.0980 120.3297 0.0000
v -9.1580 120.3297 0.0000
v -9.1580 120.2697 2.1800
v -9.0980 120.2697 2.1800
v -9.0980 120.3297 2.1800
v -9.1580 120.3297 2.1800
v -9.1580 120.2697 0.0000
v -9.0980 120.2697 0.0000
v -9.0980 120.3297 0.0000
v -9.1580 120.3297 0.0000
v -9.1580 120.2697 2.1800
v -9.0980 120.2697 2.1800
v -9.0980 120.3297 2.1800
v -9.1580 120.3297 2.1800
v -9.1580 117.2989 0.0000
v -9.0980 117.2989 0.0000
v -9.0980 117.3589 0.0000
v -9.1580 117.3589 0.0000
v -9.1580 117.2989 2.1800
v -9.0980 117.2989 2.1800
v -9.0980 117.3589 2.1800
v -9.1580 117.3589 2.1800
v -9.1580 114.3280 0.0000
v -9.0980 114.3280 0.0000
v -9.0980 114.3880 0.0000
v -9.1580 114.3880 0.0000
v -9.1580 114.3280 2.1800
v -9.0980 114.3280 2.1800
v -9.0980 114.3880 2.1800
v -9.1580 114.3880 2.1800
v -9.1580 111.3571 0.0000
v -9.0980 111.3571 0.0000
v -9.0980 111.4171 0.0000
v -9.1580 111.4171 0.0000
v -9.1580 111.3571 2.1800
v -9.0980 111.3571 2.1800
v -9.0980 111.4171 2.1800
v -9.1580 111.4171 2.1800
v -9.1580 108.3862 0.0000
v -9.0980 108.3862 0.0000
v -9.0980 108.4462 0.0000
v -9.1580 108.4462 0.0000
v -9.1580 108.3862 2.1800
v -9.0980 108.3862 2.1800
v -9.0980 108.4462 2.1800
v -9.1580 108.4462 2.1800
v -9.1580 105.4154 0.0000
v -9.0980 105.4154 0.0000
v -9.0980 105.4754 0.0000
v -9.1580 105.4754 0.0000
v -9.1580 105.4154 2.1800
v -9.0980 105.4154 2.1800
v -9.0980 105.4754 2.1800
v -9.1580 105.4754 2.1800
v -9.1580 102.4445 0.0000
v -9.0980 102.4445 0.0000
v -9.0980 102.5045 0.0000
v -9.1580 102.5045 0.0000
v -9.1580 102.4445 2.1800
v -9.0980 102.4445 2.1800
v -9.0980 102.5045 2.1800
v -9.1580 102.5045 2.1800
v -9.1580 99.4736 0.0000
v -9.0980 99.4736 0.0000
v -9.0980 99.5336 0.0000
v -9.1580 99.5336 0.0000
v -9.1580 99.4736 2.1800
v -9.0980 99.4736 2.1800
v -9.0980 99.5336 2.1800
v -9.1580 99.5336 2.1800
v -9.1580 96.5027 0.0000
v -9.0980 96.5027 0.0000
v -9.0980 96.5627 0.0000
v -9.1580 96.5627 0.0000
v -9.1580 96.5027 2.1800
v -9.0980 96.5027 2.1800
v -9.0980 96.5627 2.1800
v -9.1580 96.5627 2.1800
v -9.1580 93.5319 0.0000
v -9.0980 93.5319 0.0000
v -9.0980 93.5919 0.0000
v -9.1580 93.5919 0.0000
v -9.1580 93.5319 2.1800
v -9.0980 93.5319 2.1800
v -9.0980 93.5919 2.1800
v -9.1580 93.5919 2.1800
v -9.1580 90.5610 0.0000
v -9.0980 90.5610 0.0000
v -9.0980 90.6210 0.0000
v -9.1580 90.6210 0.0000
v -9.1580 90.5610 2.1800
v -9.0980 90.5610 2.1800
v -9.0980 90.6210 2.1800
v -9.1580 90.6210 2.1800
v -9.1580 87.5901 0.0000
v -9.0980 87.5901 0.0000
v -9.0980 87.6501 0.0000
v -9.1580 87.6501 0.0000
v -9.1580 87.5901 2.1800
v -9.0980 87.5901 2.1800
v -9.0980 87.6501 2.1800
v -9.1580 87.6501 2.1800
v -9.1580 84.6192 0.0000
v -9.0980 84.6192 0.0000
v -9.0980 84.6792 0.0000
v -9.1580 84.6792 0.0000
v -9.1580 84.6192 2.1800
v -9.0980 84.6192 2.1800
v -9.0980 84.6792 2.1800
v -9.1580 84.6792 2.1800
v -9.1580 81.6484 0.0000
v -9.0980 81.6484 0.0000
v -9.0980 81.7084 0.0000
v -9.1580 81.7084 0.0000
v -9.1580 81.6484 2.1800
v -9.0980 81.6484 2.1800
v -9.0980 81.7084 2.1800
v -9.1580 81.7084 2.1800
v -9.1580 78.6775 0.0000
v -9.0980 78.6775 0.0000
v -9.0980 78.7375 0.0000
v -9.1580 78.7375 0.0000
v -9.1580 78.6775 2.1800
v -9.0980 78.6775 2.1800
v -9.0980 78.7375 2.1800
v -9.1580 78.7375 2.1800
v -9.1580 75.7066 0.0000
v -9.0980 75.7066 0.0000
v -9.0980 75.7666 0.0000
v -9.1580 75.7666 0.0000
v -9.1580 75.7066 2.1800
v -9.0980 75.7066 2.1800
v -9.0980 75.7666 2.1800
v -9.1580 75.7666 2.1800
v -9.1580 72.7357 0.0000
v -9.0980 72.7357 0.0000
v -9.0980 72.7957 0.0000
v -9.1580 72.7957 0.0000
v -9.1580 72.7357 2.1800
v -9.0980 72.7357 2.1800
v -9.0980 72.7957 2.1800
v -9.1580 72.7957 2.1800
v -9.1580 69.7649 0.0000
v -9.0980 69.7649 0.0000
v -9.0980 69.8249 0.0000
v -9.1580 69.8249 0.0000
v -9.1580 69.7649 2.1800
v -9.0980 69.7649 2.1800
v -9.0980 69.8249 2.1800
v -9.1580 69.8249 2.1800
v -9.1580 66.7940 0.0000
v -9.0980 66.7940 0.0000
v -9.0980 66.8540 0.0000
v -9.1580 66.8540 0.0000
v -9.1580 66.7940 2.1800
v -9.0980 66.7940 2.1800
v -9.0980 66.8540 2.1800
v -9.1580 66.8540 2.1800
v -9.1580 63.8231 0.0000
v -9.0980 63.8231 0.0000
v -9.0980 63.8831 0.0000
v -9.1580 63.8831 0.0000
v -9.1580 63.8231 2.1800
v -9.0980 63.8231 2.1800
v -9.0980 63.8831 2.1800
v -9.1580 63.8831 2.1800
v -9.1580 60.8522 0.0000
v -9.0980 60.8522 0.0000
v -9.0980 60.9122 0.0000
v -9.1580 60.9122 0.0000
v -9.1580 60.8522 2.1800
v -9.0980 60.8522 2.1800
v -9.0980 60.9122 2.1800
v -9.1580 60.9122 2.1800
v -9.1580 57.8814 0.0000
v -9.0980 57.8814 0.0000
v -9.0980 57.9414 0.0000
v -9.1580 57.9414 0.0000
v -9.1580 57.8814 2.1800
v -9.0980 57.8814 2.1800
v -9.0980 57.9414 2.1800
v -9.1580 57.9414 2.1800
v -9.1580 54.9105 0.0000
v -9.0980 54.9105 0.0000
v -9.0980 54.9705 0.0000
v -9.1580 54.9705 0.0000
v -9.1580 54.9105 2.1800
v -9.0980 54.9105 2.1800
v -9.0980 54.9705 2.1800
v -9.1580 54.9705 2.1800
v -9.1580 51.9396 0.0000
v -9.0980 51.9396 0.0000
v -9.0980 51.9996 0.0000
v -9.1580 51.9996 0.0000
v -9.1580 51.9396 2.1800
v -9.0980 51.9396 2.1800
v -9.0980 51.9996 2.1800
v -9.1580 51.9996 2.1800
v -9.1580 48.9687 0.0000
v -9.0980 48.9687 0.0000
v -9.0980 49.0287 0.0000
v -9.1580 49.0287 0.0000
v -9.1580 48.9687 2.1800
v -9.0980 48.9687 2.1800
v -9.0980 49.0287 2.1800
v -9.1580 49.0287 2.1800
v -9.1580 45.9979 0.0000
v -9.0980 45.9979 0.0000
v -9.0980 46.0579 0.0000
v -9.1580 46.0579 0.0000
v -9.1580 45.9979 2.1800
v -9.0980 45.9979 2.1800
v -9.0980 46.0579 2.1800
v -9.1580 46.0579 2.1800
v -9.1580 43.0270 0.0000
v -9.0980 43.0270 0.0000
v -9.0980 43.0870 0.0000
v -9.1580 43.0870 0.0000
v -9.1580 43.0270 2.1800
v -9.0980 43.0270 2.1800
v -9.0980 43.0870 2.1800
v -9.1580 43.0870 2.1800
v -9.1580 40.0561 0.0000
v -9.0980 40.0561 0.0000
v -9.0980 40.1161 0.0000
v -9.1580 40.1161 0.0000
v -9.1580 40.0561 2.1800
v -9.0980 40.0561 2.1800
v -9.0980 40.1161 2.1800
v -9.1580 40.1161 2.1800
v -9.1580 37.0852 0.0000
v -9.0980 37.0852 0.0000
v -9.0980 37.1452 0.0000
v -9.1580 37.1452 0.0000
v -9.1580 37.0852 2.1800
v -9.0980 37.0852 2.1800
v -9.0980 37.1452 2.1800
v -9.1580 37.1452 2.1800
v -9.1580 34.1144 0.0000
v -9.0980 34.1144 0.0000
v -9.0980 34.1744 0.0000
v -9.1580 34.1744 0.0000
v -9.1580 34.1144 2.1800
v -9.0980 34.1144 2.1800
v -9.0980 34.1744 2.1800
v -9.1580 34.1744 2.1800
v -9.1580 31.1435 0.0000
v -9.0980 31.1435 0.0000
v -9.0980 31.2035 0.0000
v -9.1580 31.2035 0.0000
v -9.1580 31.1435 2.1800
v -9.0980 31.1435 2.1800
v -9.0980 31.2035 2.1800
v -9.1580 31.2035 2.1800
v -9.1580 28.1726 0.0000
v -9.0980 28.1726 0.0000
v -9.0980 28.2326 0.0000
v -9.1580 28.2326 0.0000
v -9.1580 28.1726 2.1800
v -9.0980 28.1726 2.1800
v -9.0980 28.2326 2.1800
v -9.1580 28.2326 2.1800
v -9.1580 25.2017 0.0000
v -9.0980 25.2017 0.0000
v -9.0980 25.2617 0.0000
v -9.1580 25.2617 0.0000
v -9.1580 25.2017 2.1800
v -9.0980 25.2017 2.1800
v -9.0980 25.2617 2.1800
v -9.1580 25.2617 2.1800
v -9.1580 22.2309 0.0000
v -9.0980 22.2309 0.0000
v -9.0980 22.2909 0.0000
v -9.1580 22.2909 0.0000
v -9.1580 22.2309 2.1800
v -9.0980 22.2309 2.1800
v -9.0980 22.2909 2.1800
v -9.1580 22.2909 2.1800
v -9.1580 19.2600 0.0000
v -9.0980 19.2600 0.0000
v -9.0980 19.3200 0.0000
v -9.1580 19.3200 0.0000
v -9.1580 19.2600 2.1800
v -9.0980 19.2600 2.1800
v -9.0980 19.3200 2.1800
v -9.1580 19.3200 2.1800
v -9.1580 16.2891 0.0000
v -9.0980 16.2891 0.0000
v -9.0980 16.3491 0.0000
v -9.1580 16.3491 0.0000
v -9.1580 16.2891 2.1800
v -9.0980 16.2891 2.1800
v -9.0980 16.3491 2.1800
v -9.1580 16.3491 2.1800
v -9.1580 13.3182 0.0000
v -9.0980 13.3182 0.0000
v -9.0980 13.3782 0.0000
v -9.1580 13.3782 0.0000
v -9.1580 13.3182 2.1800
v -9.0980 13.3182 2.1800
v -9.0980 13.3782 2.1800
v -9.1580 13.3782 2.1800
v -9.1580 10.3474 0.0000
v -9.0980 10.3474 0.0000
v -9.0980 10.4074 0.0000
v -9.1580 10.4074 0.0000
v -9.1580 10.3474 2.1800
v -9.0980 10.3474 2.1800
v -9.0980 10.4074 2.1800
v -9.1580 10.4074 2.1800
v -9.1580 7.3765 0.0000
v -9.0980 7.3765 0.0000
v -9.0980 7.4365 0.0000
v -9.1580 7.4365 0.0000
v -9.1580 7.3765 2.1800
v -9.0980 7.3765 2.1800
v -9.0980 7.4365 2.1800
v -9.1580 7.4365 2.1800
v -9.1580 4.4056 0.0000
v -9.0980 4.4056 0.0000
v -9.0980 4.4656 0.0000
v -9.1580 4.4656 0.0000
v -9.1580 4.4056 2.1800
v -9.0980 4.4056 2.1800
v -9.0980 4.4656 2.1800
v -9.1580 4.4656 2.1800
v -9.1580 1.4347 0.0000
v -9.0980 1.4347 0.0000
v -9.0980 1.4947 0.0000
v -9.1580 1.4947 0.0000
v -9.1580 1.4347 2.1800
v -9.0980 1.4347 2.1800
v -9.0980 1.4947 2.1800
v -9.1580 1.4947 2.1800
v -9.1580 -1.5361 0.0000
v -9.0980 -1.5361 0.0000
v -9.0980 -1.4761 0.0000
v -9.1580 -1.4761 0.0000
v -9.1580 -1.5361 2.1800
v -9.0980 -1.5361 2.1800
v -9.0980 -1.4761 2.1800
v -9.1580 -1.4761 2.1800
v -9.1580 -4.5070 0.0000
v -9.0980 -4.5070 0.0000
v -9.0980 -4.4470 0.0000
v -9.1580 -4.4470 0.0000
v -9.1580 -4.5070 2.1800
v -9.0980 -4.5070 2.1800
v -9.0980 -4.4470 2.1800
v -9.1580 -4.4470 2.1800
v -9.1580 -7.4779 0.0000
v -9.0980 -7.4779 0.0000
v -9.0980 -7.4179 0.0000
v -9.1580 -7.4179 0.0000
v -9.1580 -7.4779 2.1800
v -9.0980 -7.4779 2.1800
v -9.0980 -7.4179 2.1800
v -9.1580 -7.4179 2.1800
v -9.1580 -10.4488 0.0000
v -9.0980 -10.4488 0.0000
v -9.0980 -10.3888 0.0000
v -9.1580 -10.3888 0.0000
v -9.1580 -10.4488 2.1800
v -9.0980 -10.4488 2.1800
v -9.0980 -10.3888 2.1800
v -9.1580 -10.3888 2.1800
v -9.1580 -13.4196 0.0000
v -9.0980 -13.4196 0.0000
v -9.0980 -13.3596 0.0000
v -9.1580 -13.3596 0.0000
v -9.1580 -13.4196 2.1800
v -9.0980 -13.4196 2.1800
v -9.0980 -13.3596 2.1800
v -9.1580 -13.3596 2.1800
v -9.1280 -13.4146 2.0750
v 67.5969 -13.4146 2.0750
v 67.5969 -13.3646 2.0750
v -9.1280 -13.3646 2.0750
v -9.1280 -13.4146 2.1250
v 67.5969 -13.4146 2.1250
v 67.5969 -13.3646 2.1250
v -9.1280 -13.3646 2.1250
v -9.1280 120.2747 2.0750
v 67.5969 120.2747 2.0750
v 67.5969 120.3247 2.0750
v -9.1280 120.3247 2.0750
v -9.1280 120.2747 2.1250
v 67.5969 120.2747 2.1250
v 67.5969 120.3247 2.1250
v -9.1280 120.3247 2.1250
v -9.1530 -13.3896 2.0750
v -9.1030 -13.3896 2.0750
v -9.1030 120.2997 2.0750
v -9.1530 120.2997 2.0750
v -9.1530 -13.3896 2.1250
v -9.1030 -13.3896 2.1250
v -9.1030 120.2997 2.1250
v -9.1530 120.2997 2.1250
v 67.5719 -13.3896 2.0750
v 67.6219 -13.3896 2.0750
v 67.6219 120.2997 2.0750
v 67.5719 120.2997 2.0750
v 67.5719 -13.3896 2.1250
v 67.6219 -13.3896 2.1250
v 67.6219 120.2997 2.1250
v 67.5719 120.2997 2.1250
vt 0.0 0.0
vn 0 0 -1
vn 0 0 1
vn 0 -1 0
vn 1 0 0
vn 0 1 0
vn -1 0 0
f 1/1/1 2/1/1 3/1/1 4/1/1
f 5/1/2 8/1/2 7/1/2 6/1/2
f 1/1/3 5/1/3 6/1/3 2/1/3
f 2/1/4 6/1/4 7/1/4 3/1/4
f 3/1/5 7/1/5 8/1/5 4/1/5
f 4/1/6 8/1/6 5/1/6 1/1/6
f 9/1/1 10/1/1 11/1/1 12/1/1
f 13/1/2 16/1/2 15/1/2 14/1/2
f 9/1/3 13/1/3 14/1/3 10/1/3
f 10/1/4 14/1/4 15/1/4 11/1/4
f 11/1/5 15/1/5 16/1/5 12/1/5
f 12/1/6 16/1/6 13/1/6 9/1/6
f 17/1/1 18/1/1 19/1/1 20/1/1
f 21/1/2 24/1/2 23/1/2 22/1/2
f 17/1/3 21/1/3 22/1/3 18/1/3
f 18/1/4 22/1/4 23/1/4 19/1/4
f 19/1/5 23/1/5 24/1/5 20/1/5
f 20/1/6 24/1/6 21/1/6 17/1/6
f 25/1/1 26/1/1 27/1/1 28/1/1
f 29/1/2 32/1/2 31/1/2 30/1/2
f 25/1/3 29/1/3 30/1/3 26/1/3
f 26/1/4 30/1/4 31/1/4 27/1/4
f 27/1/5 31/1/5 32/1/5 28/1/5
f 28/1/6 32/1/6 29/1/6 25/1/6
f 33/1/1 34/1/1 35/1/1 36/1/1
f 37/1/2 40/1/2 39/1/2 38/1/2
f 33/1/3 37/1/3 38/1/3 34/1/3
f 34/1/4 38/1/4 39/1/4 35/1/4
f 35/1/5 39/1/5 40/1/5 36/1/5
f 36/1/6 40/1/6 37/1/6 33/1/6
f 41/1/1 42/1/1 43/1/1 44/1/1
f 45/1/2 48/1/2 47/1/2 46/1/2
f 41/1/3 45/1/3 46/1/3 42/1/3
f 42/1/4 46/1/4 47/1/4 43/1/4
f 43/1/5 47/1/5 48/1/5 44/1/5
f 44/1/6 48/1/6 45/1/6 41/1/6
f 49/1/1 50/1/1 51/1/1 52/1/1
f 53/1/2 56/1/2 55/1/2 54/1/2
f 49/1/3 53/1/3 54/1/3 50/1/3
f 50/1/4 54/1/4 55/1/4 51/1/4
f 51/1/5 55/1/5 56/1/5 52/1/5
f 52/1/6 56/1/6 53/1/6 49/1/6
f 57/1/1 58/1/1 59/1/1 60/1/1
f 61/1/2 64/1/2 63/1/2 62/1/2
f 57/1/3 61/1/3 62/1/3 58/1/3
f 58/1/4 62/1/4 63/1/4 59/1/4
f 59/1/5 63/1/5 64/1/5 60/1/5
f 60/1/6 64/1/6 61/1/6 57/1/6
f 65/1/1 66/1/1 67/1/1 68/1/1
f 69/1/2 72/1/2 71/1/2 70/1/2
f 65/1/3 69/1/3 70/1/3 66/1/3
f 66/1/4 70/1/4 71/1/4 67/1/4
f 67/1/5 71/1/5 72/1/5 68/1/5
f 68/1/6 72/1/6 69/1/6 65/1/6
f 73/1/1 74/1/1 75/1/1 76/1/1
f 77/1/2 80/1/2 79/1/2 78/1/2
f 73/1/3 77/1/3 78/1/3 74/1/3
f 74/1/4 78/1/4 79/1/4 75/1/4
f 75/1/5 79/1/5 80/1/5 76/1/5
f 76/1/6 80/1/6 77/1/6 73/1/6
f 81/1/1 82/1/1 83/1/1 84/1/1
f 85/1/2 88/1/2 87/1/2 86/1/2
f 81/1/3 85/1/3 86/1/3 82/1/3
f 82/1/4 86/1/4 87/1/4 83/1/4
f 83/1/5 87/1/5 88/1/5 84/1/5
f 84/1/6 88/1/6 85/1/6 81/1/6
f 89/1/1 90/1/1 91/1/1 92/1/1
f 93/1/2 96/1/2 95/1/2 94/1/2
f 89/1/3 93/1/3 94/1/3 90/1/3
f 90/1/4 94/1/4 95/1/4 91/1/4
f 91/1/5 95/1/5 96/1/5 92/1/5
f 92/1/6 96/1/6 93/1/6 89/1/6
f 97/1/1 98/1/1 99/1/1 100/1/1
f 101/1/2 104/1/2 103/1/2 102/1/2
f 97/1/3 101/1/3 102/1/3 98/1/3
f 98/1/4 102/1/4 103/1/4 99/1/4
f 99/1/5 103/1/5 104/1/5 100/1/5
f 100/1/6 104/1/6 101/1/6 97/1/6
f 105/1/1 106/1/1 107/1/1 108/1/1
f 109/1/2 112/1/2 111/1/2 110/1/2
f 105/1/3 109/1/3 110/1/3 106/1/3
f 106/1/4 110/1/4 111/1/4 107/1/4
f 107/1/5 111/1/5 112/1/5 108/1/5
f 108/1/6 112/1/6 109/1/6 105/1/6
f 113/1/1 114/1/1 115/1/1 116/1/1
f 117/1/2 120/1/2 119/1/2 118/1/2
f 113/1/3 117/1/3 118/1/3 114/1/3
f 114/1/4 118/1/4 119/1/4 115/1/4
f 115/1/5 119/1/5 120/1/5 116/1/5
f 116/1/6 120/1/6 117/1/6 113/1/6
f 121/1/1 122/1/1 123/1/1 124/1/1
f 125/1/2 128/1/2 127/1/2 126/1/2
f 121/1/3 125/1/3 126/1/3 122/1/3
f 122/1/4 126/1/4 127/1/4 123/1/4
f 123/1/5 127/1/5 128/1/5 124/1/5
f 124/1/6 128/1/6 125/1/6 121/1/6
f 129/1/1 130/1/1 131/1/1 132/1/1
f 133/1/2 136/1/2 135/1/2 134/1/2
f 129/1/3 133/1/3 134/1/3 130/1/3
f 130/1/4 134/1/4 135/1/4 131/1/4
f 131/1/5 135/1/5 136/1/5 132/1/5
f 132/1/6 136/1/6 133/1/6 129/1/6
f 137/1/1 138/1/1 139/1/1 140/1/1
f 141/1/2 144/1/2 143/1/2 142/1/2
f 137/1/3 141/1/3 142/1/3 138/1/3
f 138/1/4 142/1/4 143/1/4 139/1/4
f 139/1/5 143/1/5 144/1/5 140/1/5
f 140/1/6 144/1/6 141/1/6 137/1/6
f 145/1/1 146/1/1 147/1/1 148/1/1
f 149/1/2 152/1/2 151/1/2 150/1/2
f 145/1/3 149/1/3 150/1/3 146/1/3
f 146/1/4 150/1/4 151/1/4 147/1/4
f 147/1/5 151/1/5 152/1/5 148/1/5
f 148/1/6 152/1/6 149/1/6 145/1/6
f 153/1/1 154/1/1 155/1/1 156/1/1
f 157/1/2 160/1/2 159/1/2 158/1/2
f 153/1/3 157/1/3 158/1/3 154/1/3
f 154/1/4 158/1/4 159/1/4 155/1/4
f 155/1/5 159/1/5 160/1/5 156/1/5
f 156/1/6 160/1/6 157/1/6 153/1/6
f 161/1/1 162/1/1 163/1/1 164/1/1
f 165/1/2 168/1/2 167/1/2 166/1/2
f 161/1/3 165/1/3 166/1/3 162/1/3
f 162/1/4 166/1/4 167/1/4 163/1/4
f 163/1/5 167/1/5 168/1/5 164/1/5
f 164/1/6 168/1/6 165/1/6 161/1/6
f 169/1/1 170/1/1 171/1/1 172/1/1
f 173/1/2 176/1/2 175/1/2 174/1/2
f 169/1/3 173/1/3 174/1/3 170/1/3
f 170/1/4 174/1/4 175/1/4 171/1/4
f 171/1/5 175/1/5 176/1/5 172/1/5
f 172/1/6 176/1/6 173/1/6 169/1/6
f 177/1/1 178/1/1 179/1/1 180/1/1
f 181/1/2 184/1/2 183/1/2 182/1/2
f 177/1/3 181/1/3 182/1/3 178/1/3
f 178/1/4 182/1/4 183/1/4 179/1/4
f 179/1/5 183/1/5 184/1/5 180/1/5
f 180/1/6 184/1/6 181/1/6 177/1/6
f 185/1/1 186/1/1 187/1/1 188/1/1
f 189/1/2 192/1/2 191/1/2 190/1/2
f 185/1/3 189/1/3 190/1/3 186/1/3
f 186/1/4 190/1/4 191/1/4 187/1/4
f 187/1/5 191/1/5 192/1/5 188/1/5
f 188/1/6 192/1/6 189/1/6 185/1/6
f 193/1/1 194/1/1 195/1/1 196/1/1
f 197/1/2 200/1/2 199/1/2 198/1/2
f 193/1/3 197/1/3 198/1/3 194/1/3
f 194/1/4 198/1/4 199/1/4 195/1/4
f 195/1/5 199/1/5 200/1/5 196/1/5
f 196/1/6 200/1/6 197/1/6 193/1/6
f 201/1/1 202/1/1 203/1/1 204/1/1
f 205/1/2 208/1/2 207/1/2 206/1/2
f 201/1/3 205/1/3 206/1/3 202/1/3
f 202/1/4 206/1/4 207/1/4 203/1/4
f 203/1/5 207/1/5 208/1/5 204/1/5
f 204/1/6 208/1/6 205/1/6 201/1/6
f 209/1/1 210/1/1 211/1/1 212/1/1
f 213/1/2 216/1/2 215/1/2 214/1/2
f 209/1/3 213/1/3 214/1/3 210/1/3
f 210/1/4 214/1/4 215/1/4 211/1/4
f 211/1/5 215/1/5 216/1/5 212/1/5
f 212/1/6 216/1/6 213/1/6 209/1/6
f 217/1/1 218/1/1 219/1/1 220/1/1
f 221/1/2 224/1/2 223/1/2 222/1/2
f 217/1/3 221/1/3 222/1/3 218/1/3
f 218/1/4 222/1/4 223/1/4 219/1/4
f 219/1/5 223/1/5 224/1/5 220/1/5
f 220/1/6 224/1/6 221/1/6 217/1/6
f 225/1/1 226/1/1 227/1/1 228/1/1
f 229/1/2 232/1/2 231/1/2 230/1/2
f 225/1/3 229/1/3 230/1/3 226/1/3
f 226/1/4 230/1/4 231/1/4 227/1/4
f 227/1/5 231/1/5 232/1/5 228/1/5
f 228/1/6 232/1/6 229/1/6 225/1/6
f 233/1/1 234/1/1 235/1/1 236/1/1
f 237/1/2 240/1/2 239/1/2 238/1/2
f 233/1/3 237/1/3 238/1/3 234/1/3
f 234/1/4 238/1/4 239/1/4 235/1/4
f 235/1/5 239/1/5 240/1/5 236/1/5
f 236/1/6 240/1/6 237/1/6 233/1/6
f 241/1/1 242/1/1 243/1/1 244/1/1
f 245/1/2 248/1/2 247/1/2 246/1/2
f 241/1/3 245/1/3 246/1/3 242/1/3
f 242/1/4 246/1/4 247/1/4 243/1/4
f 243/1/5 247/1/5 248/1/5 244/1/5
f 244/1/6 248/1/6 245/1/6 241/1/6
f 249/1/1 250/1/1 251/1/1 252/1/1
f 253/1/2 256/1/2 255/1/2 254/1/2
f 249/1/3 253/1/3 254/1/3 250/1/3
f 250/1/4 254/1/4 255/1/4 251/1/4
f 251/1/5 255/1/5 256/1/5 252/1/5
f 252/1/6 256/1/6 253/1/6 249/1/6
f 257/1/1 258/1/1 259/1/1 260/1/1
f 261/1/2 264/1/2 263/1/2 262/1/2
f 257/1/3 261/1/3 262/1/3 258/1/3
f 258/1/4 262/1/4 263/1/4 259/1/4
f 259/1/5 263/1/5 264/1/5 260/1/5
f 260/1/6 264/1/6 261/1/6 257/1/6
f 265/1/1 266/1/1 267/1/1 268/1/1
f 269/1/2 272/1/2 271/1/2 270/1/2
f 265/1/3 269/1/3 270/1/3 266/1/3
f 266/1/4 270/1/4 271/1/4 267/1/4
f 267/1/5 271/1/5 272/1/5 268/1/5
f 268/1/6 272/1/6 269/1/6 265/1/6
f 273/1/1 274/1/1 275/1/1 276/1/1
f 277/1/2 280/1/2 279/1/2 278/1/2
f 273/1/3 277/1/3 278/1/3 274/1/3
f 274/1/4 278/1/4 279/1/4 275/1/4
f 275/1/5 279/1/5 280/1/5 276/1/5
f 276/1/6 280/1/6 277/1/6 273/1/6
f 281/1/1 282/1/1 283/1/1 284/1/1
f 285/1/2 288/1/2 287/1/2 286/1/2
f 281/1/3 285/1/3 286/1/3 282/1/3
f 282/1/4 286/1/4 287/1/4 283/1/4
f 283/1/5 287/1/5 288/1/5 284/1/5
f 284/1/6 288/1/6 285/1/6 281/1/6
f 289/1/1 290/1/1 291/1/1 292/1/1
f 293/1/2 296/1/2 295/1/2 294/1/2
f 289/1/3 293/1/3 294/1/3 290/1/3
f 290/1/4 294/1/4 295/1/4 291/1/4
f 291/1/5 295/1/5 296/1/5 292/1/5
f 292/1/6 296/1/6 293/1/6 289/1/6
f 297/1/1 298/1/1 299/1/1 300/1/1
f 301/1/2 304/1/2 303/1/2 302/1/2
f 297/1/3 301/1/3 302/1/3 298/1/3
f 298/1/4 302/1/4 303/1/4 299/1/4
f 299/1/5 303/1/5 304/1/5 300/1/5
f 300/1/6 304/1/6 301/1/6 297/1/6
f 305/1/1 306/1/1 307/1/1 308/1/1
f 309/1/2 312/1/2 311/1/2 310/1/2
f 305/1/3 309/1/3 310/1/3 306/1/3
f 306/1/4 310/1/4 311/1/4 307/1/4
f 307/1/5 311/1/5 312/1/5 308/1/5
f 308/1/6 312/1/6 309/1/6 305/1/6
f 313/1/1 314/1/1 315/1/1 316/1/1
f 317/1/2 320/1/2 319/1/2 318/1/2
f 313/1/3 317/1/3 318/1/3 314/1/3
f 314/1/4 318/1/4 319/1/4 315/1/4
f 315/1/5 319/1/5 320/1/5 316/1/5
f 316/1/6 320/1/6 317/1/6 313/1/6
f 321/1/1 322/1/1 323/1/1 324/1/1
f 325/1/2 328/1/2 327/1/2 326/1/2
f 321/1/3 325/1/3 326/1/3 322/1/3
f 322/1/4 326/1/4 327/1/4 323/1/4
f 323/1/5 327/1/5 328/1/5 324/1/5
f 324/1/6 328/1/6 325/1/6 321/1/6
f 329/1/1 330/1/1 331/1/1 332/1/1
f 333/1/2 336/1/2 335/1/2 334/1/2
f 329/1/3 333/1/3 334/1/3 330/1/3
f 330/1/4 334/1/4 335/1/4 331/1/4
f 331/1/5 335/1/5 336/1/5 332/1/5
f 332/1/6 336/1/6 333/1/6 329/1/6
f 337/1/1 338/1/1 339/1/1 340/1/1
f 341/1/2 344/1/2 343/1/2 342/1/2
f 337/1/3 341/1/3 342/1/3 338/1/3
f 338/1/4 342/1/4 343/1/4 339/1/4
f 339/1/5 343/1/5 344/1/5 340/1/5
f 340/1/6 344/1/6 341/1/6 337/1/6
f 345/1/1 346/1/1 347/1/1 348/1/1
f 349/1/2 352/1/2 351/1/2 350/1/2
f 345/1/3 349/1/3 350/1/3 346/1/3
f 346/1/4 350/1/4 351/1/4 347/1/4
f 347/1/5 351/1/5 352/1/5 348/1/5
f 348/1/6 352/1/6 349/1/6 345/1/6
f 353/1/1 354/1/1 355/1/1 356/1/1
f 357/1/2 360/1/2 359/1/2 358/1/2
f 353/1/3 357/1/3 358/1/3 354/1/3
f 354/1/4 358/1/4 359/1/4 355/1/4
f 355/1/5 359/1/5 360/1/5 356/1/5
f 356/1/6 360/1/6 357/1/6 353/1/6
f 361/1/1 362/1/1 363/1/1 364/1/1
f 365/1/2 368/1/2 367/1/2 366/1/2
f 361/1/3 365/1/3 366/1/3 362/1/3
f 362/1/4 366/1/4 367/1/4 363/1/4
f 363/1/5 367/1/5 368/1/5 364/1/5
f 364/1/6 368/1/6 365/1/6 361/1/6
f 369/1/1 370/1/1 371/1/1 372/1/1
f 373/1/2 376/1/2 375/1/2 374/1/2
f 369/1/3 373/1/3 374/1/3 370/1/3
f 370/1/4 374/1/4 375/1/4 371/1/4
f 371/1/5 375/1/5 376/1/5 372/1/5
f 372/1/6 376/1/6 373/1/6 369/1/6
f 377/1/1 378/1/1 379/1/1 380/1/1
f 381/1/2 384/1/2 383/1/2 382/1/2
f 377/1/3 381/1/3 382/1/3 378/1/3
f 378/1/4 382/1/4 383/1/4 379/1/4
f 379/1/5 383/1/5 384/1/5 380/1/5
f 380/1/6 384/1/6 381/1/6 377/1/6
f 385/1/1 386/1/1 387/1/1 388/1/1
f 389/1/2 392/1/2 391/1/2 390/1/2
f 385/1/3 389/1/3 390/1/3 386/1/3
f 386/1/4 390/1/4 391/1/4 387/1/4
f 387/1/5 391/1/5 392/1/5 388/1/5
f 388/1/6 392/1/6 389/1/6 385/1/6
f 393/1/1 394/1/1 395/1/1 396/1/1
f 397/1/2 400/1/2 399/1/2 398/1/2
f 393/1/3 397/1/3 398/1/3 394/1/3
f 394/1/4 398/1/4 399/1/4 395/1/4
f 395/1/5 399/1/5 400/1/5 396/1/5
f 396/1/6 400/1/6 397/1/6 393/1/6
f 401/1/1 402/1/1 403/1/1 404/1/1
f 405/1/2 408/1/2 407/1/2 406/1/2
f 401/1/3 405/1/3 406/1/3 402/1/3
f 402/1/4 406/1/4 407/1/4 403/1/4
f 403/1/5 407/1/5 408/1/5 404/1/5
f 404/1/6 408/1/6 405/1/6 401/1/6
f 409/1/1 410/1/1 411/1/1 412/1/1
f 413/1/2 416/1/2 415/1/2 414/1/2
f 409/1/3 413/1/3 414/1/3 410/1/3
f 410/1/4 414/1/4 415/1/4 411/1/4
f 411/1/5 415/1/5 416/1/5 412/1/5
f 412/1/6 416/1/6 413/1/6 409/1/6
f 417/1/1 418/1/1 419/1/1 420/1/1
f 421/1/2 424/1/2 423/1/2 422/1/2
f 417/1/3 421/1/3 422/1/3 418/1/3
f 418/1/4 422/1/4 423/1/4 419/1/4
f 419/1/5 423/1/5 424/1/5 420/1/5
f 420/1/6 424/1/6 421/1/6 417/1/6
f 425/1/1 426/1/1 427/1/1 428/1/1
f 429/1/2 432/1/2 431/1/2 430/1/2
f 425/1/3 429/1/3 430/1/3 426/1/3
f 426/1/4 430/1/4 431/1/4 427/1/4
f 427/1/5 431/1/5 432/1/5 428/1/5
f 428/1/6 432/1/6 429/1/6 425/1/6
f 433/1/1 434/1/1 435/1/1 436/1/1
f 437/1/2 440/1/2 439/1/2 438/1/2
f 433/1/3 437/1/3 438/1/3 434/1/3
f 434/1/4 438/1/4 439/1/4 435/1/4
f 435/1/5 439/1/5 440/1/5 436/1/5
f 436/1/6 440/1/6 437/1/6 433/1/6
f 441/1/1 442/1/1 443/1/1 444/1/1
f 445/1/2 448/1/2 447/1/2 446/1/2
f 441/1/3 445/1/3 446/1/3 442/1/3
f 442/1/4 446/1/4 447/1/4 443/1/4
f 443/1/5 447/1/5 448/1/5 444/1/5
f 444/1/6 448/1/6 445/1/6 441/1/6
f 449/1/1 450/1/1 451/1/1 452/1/1
f 453/1/2 456/1/2 455/1/2 454/1/2
f 449/1/3 453/1/3 454/1/3 450/1/3
f 450/1/4 454/1/4 455/1/4 451/1/4
f 451/1/5 455/1/5 456/1/5 452/1/5
f 452/1/6 456/1/6 453/1/6 449/1/6
f 457/1/1 458/1/1 459/1/1 460/1/1
f 461/1/2 464/1/2 463/1/2 462/1/2
f 457/1/3 461/1/3 462/1/3 458/1/3
f 458/1/4 462/1/4 463/1/4 459/1/4
f 459/1/5 463/1/5 464/1/5 460/1/5
f 460/1/6 464/1/6 461/1/6 457/1/6
f 465/1/1 466/1/1 467/1/1 468/1/1
f 469/1/2 472/1/2 471/1/2 470/1/2
f 465/1/3 469/1/3 470/1/3 466/1/3
f 466/1/4 470/1/4 471/1/4 467/1/4
f 467/1/5 471/1/5 472/1/5 468/1/5
f 468/1/6 472/1/6 469/1/6 465/1/6
f 473/1/1 474/1/1 475/1/1 476/1/1
f 477/1/2 480/1/2 479/1/2 478/1/2
f 473/1/3 477/1/3 478/1/3 474/1/3
f 474/1/4 478/1/4 479/1/4 475/1/4
f 475/1/5 479/1/5 480/1/5 476/1/5
f 476/1/6 480/1/6 477/1/6 473/1/6
f 481/1/1 482/1/1 483/1/1 484/1/1
f 485/1/2 488/1/2 487/1/2 486/1/2
f 481/1/3 485/1/3 486/1/3 482/1/3
f 482/1/4 486/1/4 487/1/4 483/1/4
f 483/1/5 487/1/5 488/1/5 484/1/5
f 484/1/6 488/1/6 485/1/6 481/1/6
f 489/1/1 490/1/1 491/1/1 492/1/1
f 493/1/2 496/1/2 495/1/2 494/1/2
f 489/1/3 493/1/3 494/1/3 490/1/3
f 490/1/4 494/1/4 495/1/4 491/1/4
f 491/1/5 495/1/5 496/1/5 492/1/5
f 492/1/6 496/1/6 493/1/6 489/1/6
f 497/1/1 498/1/1 499/1/1 500/1/1
f 501/1/2 504/1/2 503/1/2 502/1/2
f 497/1/3 501/1/3 502/1/3 498/1/3
f 498/1/4 502/1/4 503/1/4 499/1/4
f 499/1/5 503/1/5 504/1/5 500/1/5
f 500/1/6 504/1/6 501/1/6 497/1/6
f 505/1/1 506/1/1 507/1/1 508/1/1
f 509/1/2 512/1/2 511/1/2 510/1/2
f 505/1/3 509/1/3 510/1/3 506/1/3
f 506/1/4 510/1/4 511/1/4 507/1/4
f 507/1/5 511/1/5 512/1/5 508/1/5
f 508/1/6 512/1/6 509/1/6 505/1/6
f 513/1/1 514/1/1 515/1/1 516/1/1
f 517/1/2 520/1/2 519/1/2 518/1/2
f 513/1/3 517/1/3 518/1/3 514/1/3
f 514/1/4 518/1/4 519/1/4 515/1/4
f 515/1/5 519/1/5 520/1/5 516/1/5
f 516/1/6 520/1/6 517/1/6 513/1/6
f 521/1/1 522/1/1 523/1/1 524/1/1
f 525/1/2 528/1/2 527/1/2 526/1/2
f 521/1/3 525/1/3 526/1/3 522/1/3
f 522/1/4 526/1/4 527/1/4 523/1/4
f 523/1/5 527/1/5 528/1/5 524/1/5
f 524/1/6 528/1/6 525/1/6 521/1/6
f 529/1/1 530/1/1 531/1/1 532/1/1
f 533/1/2 536/1/2 535/1/2 534/1/2
f 529/1/3 533/1/3 534/1/3 530/1/3
f 530/1/4 534/1/4 535/1/4 531/1/4
f 531/1/5 535/1/5 536/1/5 532/1/5
f 532/1/6 536/1/6 533/1/6 529/1/6
f 537/1/1 538/1/1 539/1/1 540/1/1
f 541/1/2 544/1/2 543/1/2 542/1/2
f 537/1/3 541/1/3 542/1/3 538/1/3
f 538/1/4 542/1/4 543/1/4 539/1/4
f 539/1/5 543/1/5 544/1/5 540/1/5
f 540/1/6 544/1/6 541/1/6 537/1/6
f 545/1/1 546/1/1 547/1/1 548/1/1
f 549/1/2 552/1/2 551/1/2 550/1/2
f 545/1/3 549/1/3 550/1/3 546/1/3
f 546/1/4 550/1/4 551/1/4 547/1/4
f 547/1/5 551/1/5 552/1/5 548/1/5
f 548/1/6 552/1/6 549/1/6 545/1/6
f 553/1/1 554/1/1 555/1/1 556/1/1
f 557/1/2 560/1/2 559/1/2 558/1/2
f 553/1/3 557/1/3 558/1/3 554/1/3
f 554/1/4 558/1/4 559/1/4 555/1/4
f 555/1/5 559/1/5 560/1/5 556/1/5
f 556/1/6 560/1/6 557/1/6 553/1/6
f 561/1/1 562/1/1 563/1/1 564/1/1
f 565/1/2 568/1/2 567/1/2 566/1/2
f 561/1/3 565/1/3 566/1/3 562/1/3
f 562/1/4 566/1/4 567/1/4 563/1/4
f 563/1/5 567/1/5 568/1/5 564/1/5
f 564/1/6 568/1/6 565/1/6 561/1/6
f 569/1/1 570/1/1 571/1/1 572/1/1
f 573/1/2 576/1/2 575/1/2 574/1/2
f 569/1/3 573/1/3 574/1/3 570/1/3
f 570/1/4 574/1/4 575/1/4 571/1/4
f 571/1/5 575/1/5 576/1/5 572/1/5
f 572/1/6 576/1/6 573/1/6 569/1/6
f 577/1/1 578/1/1 579/1/1 580/1/1
f 581/1/2 584/1/2 583/1/2 582/1/2
f 577/1/3 581/1/3 582/1/3 578/1/3
f 578/1/4 582/1/4 583/1/4 579/1/4
f 579/1/5 583/1/5 584/1/5 580/1/5
f 580/1/6 584/1/6 581/1/6 577/1/6
f 585/1/1 586/1/1 587/1/1 588/1/1
f 589/1/2 592/1/2 591/1/2 590/1/2
f 585/1/3 589/1/3 590/1/3 586/1/3
f 586/1/4 590/1/4 591/1/4 587/1/4
f 587/1/5 591/1/5 592/1/5 588/1/5
f 588/1/6 592/1/6 589/1/6 585/1/6
f 593/1/1 594/1/1 595/1/1 596/1/1
f 597/1/2 600/1/2 599/1/2 598/1/2
f 593/1/3 597/1/3 598/1/3 594/1/3
f 594/1/4 598/1/4 599/1/4 595/1/4
f 595/1/5 599/1/5 600/1/5 596/1/5
f 596/1/6 600/1/6 597/1/6 593/1/6
f 601/1/1 602/1/1 603/1/1 604/1/1
f 605/1/2 608/1/2 607/1/2 606/1/2
f 601/1/3 605/1/3 606/1/3 602/1/3
f 602/1/4 606/1/4 607/1/4 603/1/4
f 603/1/5 607/1/5 608/1/5 604/1/5
f 604/1/6 608/1/6 605/1/6 601/1/6
f 609/1/1 610/1/1 611/1/1 612/1/1
f 613/1/2 616/1/2 615/1/2 614/1/2
f 609/1/3 613/1/3 614/1/3 610/1/3
f 610/1/4 614/1/4 615/1/4 611/1/4
f 611/1/5 615/1/5 616/1/5 612/1/5
f 612/1/6 616/1/6 613/1/6 609/1/6
f 617/1/1 618/1/1 619/1/1 620/1/1
f 621/1/2 624/1/2 623/1/2 622/1/2
f 617/1/3 621/1/3 622/1/3 618/1/3
f 618/1/4 622/1/4 623/1/4 619/1/4
f 619/1/5 623/1/5 624/1/5 620/1/5
f 620/1/6 624/1/6 621/1/6 617/1/6
f 625/1/1 626/1/1 627/1/1 628/1/1
f 629/1/2 632/1/2 631/1/2 630/1/2
f 625/1/3 629/1/3 630/1/3 626/1/3
f 626/1/4 630/1/4 631/1/4 627/1/4
f 627/1/5 631/1/5 632/1/5 628/1/5
f 628/1/6 632/1/6 629/1/6 625/1/6
f 633/1/1 634/1/1 635/1/1 636/1/1
f 637/1/2 640/1/2 639/1/2 638/1/2
f 633/1/3 637/1/3 638/1/3 634/1/3
f 634/1/4 638/1/4 639/1/4 635/1/4
f 635/1/5 639/1/5 640/1/5 636/1/5
f 636/1/6 640/1/6 637/1/6 633/1/6
f 641/1/1 642/1/1 643/1/1 644/1/1
f 645/1/2 648/1/2 647/1/2 646/1/2
f 641/1/3 645/1/3 646/1/3 642/1/3
f 642/1/4 646/1/4 647/1/4 643/1/4
f 643/1/5 647/1/5 648/1/5 644/1/5
f 644/1/6 648/1/6 645/1/6 641/1/6
f 649/1/1 650/1/1 651/1/1 652/1/1
f 653/1/2 656/1/2 655/1/2 654/1/2
f 649/1/3 653/1/3 654/1/3 650/1/3
f 650/1/4 654/1/4 655/1/4 651/1/4
f 651/1/5 655/1/5 656/1/5 652/1/5
f 652/1/6 656/1/6 653/1/6 649/1/6
f 657/1/1 658/1/1 659/1/1 660/1/1
f 661/1/2 664/1/2 663/1/2 662/1/2
f 657/1/3 661/1/3 662/1/3 658/1/3
f 658/1/4 662/1/4 663/1/4 659/1/4
f 659/1/5 663/1/5 664/1/5 660/1/5
f 660/1/6 664/1/6 661/1/6 657/1/6
f 665/1/1 666/1/1 667/1/1 668/1/1
f 669/1/2 672/1/2 671/1/2 670/1/2
f 665/1/3 669/1/3 670/1/3 666/1/3
f 666/1/4 670/1/4 671/1/4 667/1/4
f 667/1/5 671/1/5 672/1/5 668/1/5
f 668/1/6 672/1/6 669/1/6 665/1/6
f 673/1/1 674/1/1 675/1/1 676/1/1
f 677/1/2 680/1/2 679/1/2 678/1/2
f 673/1/3 677/1/3 678/1/3 674/1/3
f 674/1/4 678/1/4 679/1/4 675/1/4
f 675/1/5 679/1/5 680/1/5 676/1/5
f 676/1/6 680/1/6 677/1/6 673/1/6
f 681/1/1 682/1/1 683/1/1 684/1/1
f 685/1/2 688/1/2 687/1/2 686/1/2
f 681/1/3 685/1/3 686/1/3 682/1/3
f 682/1/4 686/1/4 687/1/4 683/1/4
f 683/1/5 687/1/5 688/1/5 684/1/5
f 684/1/6 688/1/6 685/1/6 681/1/6
f 689/1/1 690/1/1 691/1/1 692/1/1
f 693/1/2 696/1/2 695/1/2 694/1/2
f 689/1/3 693/1/3 694/1/3 690/1/3
f 690/1/4 694/1/4 695/1/4 691/1/4
f 691/1/5 695/1/5 696/1/5 692/1/5
f 692/1/6 696/1/6 693/1/6 689/1/6
f 697/1/1 698/1/1 699/1/1 700/1/1
f 701/1/2 704/1/2 703/1/2 702/1/2
f 697/1/3 701/1/3 702/1/3 698/1/3
f 698/1/4 702/1/4 703/1/4 699/1/4
f 699/1/5 703/1/5 704/1/5 700/1/5
f 700/1/6 704/1/6 701/1/6 697/1/6
f 705/1/1 706/1/1 707/1/1 708/1/1
f 709/1/2 712/1/2 711/1/2 710/1/2
f 705/1/3 709/1/3 710/1/3 706/1/3
f 706/1/4 710/1/4 711/1/4 707/1/4
f 707/1/5 711/1/5 712/1/5 708/1/5
f 708/1/6 712/1/6 709/1/6 705/1/6
f 713/1/1 714/1/1 715/1/1 716/1/1
f 717/1/2 720/1/2 719/1/2 718/1/2
f 713/1/3 717/1/3 718/1/3 714/1/3
f 714/1/4 718/1/4 719/1/4 715/1/4
f 715/1/5 719/1/5 720/1/5 716/1/5
f 716/1/6 720/1/6 717/1/6 713/1/6
f 721/1/1 722/1/1 723/1/1 724/1/1
f 725/1/2 728/1/2 727/1/2 726/1/2
f 721/1/3 725/1/3 726/1/3 722/1/3
f 722/1/4 726/1/4 727/1/4 723/1/4
f 723/1/5 727/1/5 728/1/5 724/1/5
f 724/1/6 728/1/6 725/1/6 721/1/6
f 729/1/1 730/1/1 731/1/1 732/1/1
f 733/1/2 736/1/2 735/1/2 734/1/2
f 729/1/3 733/1/3 734/1/3 730/1/3
f 730/1/4 734/1/4 735/1/4 731/1/4
f 731/1/5 735/1/5 736/1/5 732/1/5
f 732/1/6 736/1/6 733/1/6 729/1/6
f 737/1/1 738/1/1 739/1/1 740/1/1
f 741/1/2 744/1/2 743/1/2 742/1/2
f 737/1/3 741/1/3 742/1/3 738/1/3
f 738/1/4 742/1/4 743/1/4 739/1/4
f 739/1/5 743/1/5 744/1/5 740/1/5
f 740/1/6 744/1/6 741/1/6 737/1/6
f 745/1/1 746/1/1 747/1/1 748/1/1
f 749/1/2 752/1/2 751/1/2 750/1/2
f 745/1/3 749/1/3 750/1/3 746/1/3
f 746/1/4 750/1/4 751/1/4 747/1/4
f 747/1/5 751/1/5 752/1/5 748/1/5
f 748/1/6 752/1/6 749/1/6 745/1/6
f 753/1/1 754/1/1 755/1/1 756/1/1
f 757/1/2 760/1/2 759/1/2 758/1/2
f 753/1/3 757/1/3 758/1/3 754/1/3
f 754/1/4 758/1/4 759/1/4 755/1/4
f 755/1/5 759/1/5 760/1/5 756/1/5
f 756/1/6 760/1/6 757/1/6 753/1/6
f 761/1/1 762/1/1 763/1/1 764/1/1
f 765/1/2 768/1/2 767/1/2 766/1/2
f 761/1/3 765/1/3 766/1/3 762/1/3
f 762/1/4 766/1/4 767/1/4 763/1/4
f 763/1/5 767/1/5 768/1/5 764/1/5
f 764/1/6 768/1/6 765/1/6 761/1/6
f 769/1/1 770/1/1 771/1/1 772/1/1
f 773/1/2 776/1/2 775/1/2 774/1/2
f 769/1/3 773/1/3 774/1/3 770/1/3
f 770/1/4 774/1/4 775/1/4 771/1/4
f 771/1/5 775/1/5 776/1/5 772/1/5
f 772/1/6 776/1/6 773/1/6 769/1/6
f 777/1/1 778/1/1 779/1/1 780/1/1
f 781/1/2 784/1/2 783/1/2 782/1/2
f 777/1/3 781/1/3 782/1/3 778/1/3
f 778/1/4 782/1/4 783/1/4 779/1/4
f 779/1/5 783/1/5 784/1/5 780/1/5
f 780/1/6 784/1/6 781/1/6 777/1/6
f 785/1/1 786/1/1 787/1/1 788/1/1
f 789/1/2 792/1/2 791/1/2 790/1/2
f 785/1/3 789/1/3 790/1/3 786/1/3
f 786/1/4 790/1/4 791/1/4 787/1/4
f 787/1/5 791/1/5 792/1/5 788/1/5
f 788/1/6 792/1/6 789/1/6 785/1/6
f 793/1/1 794/1/1 795/1/1 796/1/1
f 797/1/2 800/1/2 799/1/2 798/1/2
f 793/1/3 797/1/3 798/1/3 794/1/3
f 794/1/4 798/1/4 799/1/4 795/1/4
f 795/1/5 799/1/5 800/1/5 796/1/5
f 796/1/6 800/1/6 797/1/6 793/1/6
f 801/1/1 802/1/1 803/1/1 804/1/1
f 805/1/2 808/1/2 807/1/2 806/1/2
f 801/1/3 805/1/3 806/1/3 802/1/3
f 802/1/4 806/1/4 807/1/4 803/1/4
f 803/1/5 807/1/5 808/1/5 804/1/5
f 804/1/6 808/1/6 805/1/6 801/1/6
f 809/1/1 810/1/1 811/1/1 812/1/1
f 813/1/2 816/1/2 815/1/2 814/1/2
f 809/1/3 813/1/3 814/1/3 810/1/3
f 810/1/4 814/1/4 815/1/4 811/1/4
f 811/1/5 815/1/5 816/1/5 812/1/5
f 812/1/6 816/1/6 813/1/6 809/1/6
f 817/1/1 818/1/1 819/1/1 820/1/1
f 821/1/2 824/1/2 823/1/2 822/1/2
f 817/1/3 821/1/3 822/1/3 818/1/3
f 818/1/4 822/1/4 823/1/4 819/1/4
f 819/1/5 823/1/5 824/1/5 820/1/5
f 820/1/6 824/1/6 821/1/6 817/1/6
f 825/1/1 826/1/1 827/1/1 828/1/1
f 829/1/2 832/1/2 831/1/2 830/1/2
f 825/1/3 829/1/3 830/1/3 826/1/3
f 826/1/4 830/1/4 831/1/4 827/1/4
f 827/1/5 831/1/5 832/1/5 828/1/5
f 828/1/6 832/1/6 829/1/6 825/1/6
f 833/1/1 834/1/1 835/1/1 836/1/1
f 837/1/2 840/1/2 839/1/2 838/1/2
f 833/1/3 837/1/3 838/1/3 834/1/3
f 834/1/4 838/1/4 839/1/4 835/1/4
f 835/1/5 839/1/5 840/1/5 836/1/5
f 836/1/6 840/1/6 837/1/6 833/1/6
f 841/1/1 842/1/1 843/1/1 844/1/1
f 845/1/2 848/1/2 847/1/2 846/1/2
f 841/1/3 845/1/3 846/1/3 842/1/3
f 842/1/4 846/1/4 847/1/4 843/1/4
f 843/1/5 847/1/5 848/1/5 844/1/5
f 844/1/6 848/1/6 845/1/6 841/1/6
f 849/1/1 850/1/1 851/1/1 852/1/1
f 853/1/2 856/1/2 855/1/2 854/1/2
f 849/1/3 853/1/3 854/1/3 850/1/3
f 850/1/4 854/1/4 855/1/4 851/1/4
f 851/1/5 855/1/5 856/1/5 852/1/5
f 852/1/6 856/1/6 853/1/6 849/1/6
f 857/1/1 858/1/1 859/1/1 860/1/1
f 861/1/2 864/1/2 863/1/2 862/1/2
f 857/1/3 861/1/3 862/1/3 858/1/3
f 858/1/4 862/1/4 863/1/4 859/1/4
f 859/1/5 863/1/5 864/1/5 860/1/5
f 860/1/6 864/1/6 861/1/6 857/1/6
f 865/1/1 866/1/1 867/1/1 868/1/1
f 869/1/2 872/1/2 871/1/2 870/1/2
f 865/1/3 869/1/3 870/1/3 866/1/3
f 866/1/4 870/1/4 871/1/4 867/1/4
f 867/1/5 871/1/5 872/1/5 868/1/5
f 868/1/6 872/1/6 869/1/6 865/1/6
f 873/1/1 874/1/1 875/1/1 876/1/1
f 877/1/2 880/1/2 879/1/2 878/1/2
f 873/1/3 877/1/3 878/1/3 874/1/3
f 874/1/4 878/1/4 879/1/4 875/1/4
f 875/1/5 879/1/5 880/1/5 876/1/5
f 876/1/6 880/1/6 877/1/6 873/1/6
f 881/1/1 882/1/1 883/1/1 884/1/1
f 885/1/2 888/1/2 887/1/2 886/1/2
f 881/1/3 885/1/3 886/1/3 882/1/3
f 882/1/4 886/1/4 887/1/4 883/1/4
f 883/1/5 887/1/5 888/1/5 884/1/5
f 884/1/6 888/1/6 885/1/6 881/1/6
f 889/1/1 890/1/1 891/1/1 892/1/1
f 893/1/2 896/1/2 895/1/2 894/1/2
f 889/1/3 893/1/3 894/1/3 890/1/3
f 890/1/4 894/1/4 895/1/4 891/1/4
f 891/1/5 895/1/5 896/1/5 892/1/5
f 892/1/6 896/1/6 893/1/6 889/1/6
f 897/1/1 898/1/1 899/1/1 900/1/1
f 901/1/2 904/1/2 903/1/2 902/1/2
f 897/1/3 901/1/3 902/1/3 898/1/3
f 898/1/4 902/1/4 903/1/4 899/1/4
f 899/1/5 903/1/5 904/1/5 900/1/5
f 900/1/6 904/1/6 901/1/6 897/1/6
f 905/1/1 906/1/1 907/1/1 908/1/1
f 909/1/2 912/1/2 911/1/2 910/1/2
f 905/1/3 909/1/3 910/1/3 906/1/3
f 906/1/4 910/1/4 911/1/4 907/1/4
f 907/1/5 911/1/5 912/1/5 908/1/5
f 908/1/6 912/1/6 909/1/6 905/1/6
f 913/1/1 914/1/1 915/1/1 916/1/1
f 917/1/2 920/1/2 919/1/2 918/1/2
f 913/1/3 917/1/3 918/1/3 914/1/3
f 914/1/4 918/1/4 919/1/4 915/1/4
f 915/1/5 919/1/5 920/1/5 916/1/5
f 916/1/6 920/1/6 917/1/6 913/1/6
f 921/1/1 922/1/1 923/1/1 924/1/1
f 925/1/2 928/1/2 927/1/2 926/1/2
f 921/1/3 925/1/3 926/1/3 922/1/3
f 922/1/4 926/1/4 927/1/4 923/1/4
f 923/1/5 927/1/5 928/1/5 924/1/5
f 924/1/6 928/1/6 925/1/6 921/1/6
f 929/1/1 930/1/1 931/1/1 932/1/1
f 933/1/2 936/1/2 935/1/2 934/1/2
f 929/1/3 933/1/3 934/1/3 930/1/3
f 930/1/4 934/1/4 935/1/4 931/1/4
f 931/1/5 935/1/5 936/1/5 932/1/5
f 932/1/6 936/1/6 933/1/6 929/1/6
f 937/1/1 938/1/1 939/1/1 940/1/1
f 941/1/2 944/1/2 943/1/2 942/1/2
f 937/1/3 941/1/3 942/1/3 938/1/3
f 938/1/4 942/1/4 943/1/4 939/1/4
f 939/1/5 943/1/5 944/1/5 940/1/5
f 940/1/6 944/1/6 941/1/6 937/1/6
f 945/1/1 946/1/1 947/1/1 948/1/1
f 949/1/2 952/1/2 951/1/2 950/1/2
f 945/1/3 949/1/3 950/1/3 946/1/3
f 946/1/4 950/1/4 951/1/4 947/1/4
f 947/1/5 951/1/5 952/1/5 948/1/5
f 948/1/6 952/1/6 949/1/6 945/1/6
f 953/1/1 954/1/1 955/1/1 956/1/1
f 957/1/2 960/1/2 959/1/2 958/1/2
f 953/1/3 957/1/3 958/1/3 954/1/3
f 954/1/4 958/1/4 959/1/4 955/1/4
f 955/1/5 959/1/5 960/1/5 956/1/5
f 956/1/6 960/1/6 957/1/6 953/1/6
f 961/1/1 962/1/1 963/1/1 964/1/1
f 965/1/2 968/1/2 967/1/2 966/1/2
f 961/1/3 965/1/3 966/1/3 962/1/3
f 962/1/4 966/1/4 967/1/4 963/1/4
f 963/1/5 967/1/5 968/1/5 964/1/5
f 964/1/6 968/1/6 965/1/6 961/1/6
f 969/1/1 970/1/1 971/1/1 972/1/1
f 973/1/2 976/1/2 975/1/2 974/1/2
f 969/1/3 973/1/3 974/1/3 970/1/3
f 970/1/4 974/1/4 975/1/4 971/1/4
f 971/1/5 975/1/5 976/1/5 972/1/5
f 972/1/6 976/1/6 973/1/6 969/1/6
f 977/1/1 978/1/1 979/1/1 980/1/1
f 981/1/2 984/1/2 983/1/2 982/1/2
f 977/1/3 981/1/3 982/1/3 978/1/3
f 978/1/4 982/1/4 983/1/4 979/1/4
f 979/1/5 983/1/5 984/1/5 980/1/5
f 980/1/6 984/1/6 981/1/6 977/1/6
f 985/1/1 986/1/1 987/1/1 988/1/1
f 989/1/2 992/1/2 991/1/2 990/1/2
f 985/1/3 989/1/3 990/1/3 986/1/3
f 986/1/4 990/1/4 991/1/4 987/1/4
f 987/1/5 991/1/5 992/1/5 988/1/5
f 988/1/6 992/1/6 989/1/6 985/1/6
f 993/1/1 994/1/1 995/1/1 996/1/1
f 997/1/2 1000/1/2 999/1/2 998/1/2
f 993/1/3 997/1/3 998/1/3 994/1/3
f 994/1/4 998/1/4 999/1/4 995/1/4
f 995/1/5 999/1/5 1000/1/5 996/1/5
f 996/1/6 1000/1/6 997/1/6 993/1/6
f 1001/1/1 1002/1/1 1003/1/1 1004/1/1
f 1005/1/2 1008/1/2 1007/1/2 1006/1/2
f 1001/1/3 1005/1/3 1006/1/3 1002/1/3
f 1002/1/4 1006/1/4 1007/1/4 1003/1/4
f 1003/1/5 1007/1/5 1008/1/5 1004/1/5
f 1004/1/6 1008/1/6 1005/1/6 1001/1/6
f 1009/1/1 1010/1/1 1011/1/1 1012/1/1
f 1013/1/2 1016/1/2 1015/1/2 1014/1/2
f 1009/1/3 1013/1/3 1014/1/3 1010/1/3
f 1010/1/4 1014/1/4 1015/1/4 1011/1/4
f 1011/1/5 1015/1/5 1016/1/5 1012/1/5
f 1012/1/6 1016/1/6 1013/1/6 1009/1/6
f 1017/1/1 1018/1/1 1019/1/1 1020/1/1
f 1021/1/2 1024/1/2 1023/1/2 1022/1/2
f 1017/1/3 1021/1/3 1022/1/3 1018/1/3
f 1018/1/4 1022/1/4 1023/1/4 1019/1/4
f 1019/1/5 1023/1/5 1024/1/5 1020/1/5
f 1020/1/6 1024/1/6 1021/1/6 1017/1/6
f 1025/1/1 1026/1/1 1027/1/1 1028/1/1
f 1029/1/2 1032/1/2 1031/1/2 1030/1/2
f 1025/1/3 1029/1/3 1030/1/3 1026/1/3
f 1026/1/4 1030/1/4 1031/1/4 1027/1/4
f 1027/1/5 1031/1/5 1032/1/5 1028/1/5
f 1028/1/6 1032/1/6 1029/1/6 1025/1/6
f 1033/1/1 1034/1/1 1035/1/1 1036/1/1
f 1037/1/2 1040/1/2 1039/1/2 1038/1/2
f 1033/1/3 1037/1/3 1038/1/3 1034/1/3
f 1034/1/4 1038/1/4 1039/1/4 1035/1/4
f 1035/1/5 1039/1/5 1040/1/5 1036/1/5
f 1036/1/6 1040/1/6 1037/1/6 1033/1/6
f 1041/1/1 1042/1/1 1043/1/1 1044/1/1
f 1045/1/2 1048/1/2 1047/1/2 1046/1/2
f 1041/1/3 1045/1/3 1046/1/3 1042/1/3
f 1042/1/4 1046/1/4 1047/1/4 1043/1/4
f 1043/1/5 1047/1/5 1048/1/5 1044/1/5
f 1044/1/6 1048/1/6 1045/1/6 1041/1/6
f 1049/1/1 1050/1/1 1051/1/1 1052/1/1
f 1053/1/2 1056/1/2 1055/1/2 1054/1/2
f 1049/1/3 1053/1/3 1054/1/3 1050/1/3
f 1050/1/4 1054/1/4 1055/1/4 1051/1/4
f 1051/1/5 1055/1/5 1056/1/5 1052/1/5
f 1052/1/6 1056/1/6 1053/1/6 1049/1/6
f 1057/1/1 1058/1/1 1059/1/1 1060/1/1
f 1061/1/2 1064/1/2 1063/1/2 1062/1/2
f 1057/1/3 1061/1/3 1062/1/3 1058/1/3
f 1058/1/4 1062/1/4 1063/1/4 1059/1/4
f 1059/1/5 1063/1/5 1064/1/5 1060/1/5
f 1060/1/6 1064/1/6 1061/1/6 1057/1/6
f 1065/1/1 1066/1/1 1067/1/1 1068/1/1
f 1069/1/2 1072/1/2 1071/1/2 1070/1/2
f 1065/1/3 1069/1/3 1070/1/3 1066/1/3
f 1066/1/4 1070/1/4 1071/1/4 1067/1/4
f 1067/1/5 1071/1/5 1072/1/5 1068/1/5
f 1068/1/6 1072/1/6 1069/1/6 1065/1/6
f 1073/1/1 1074/1/1 1075/1/1 1076/1/1
f 1077/1/2 1080/1/2 1079/1/2 1078/1/2
f 1073/1/3 1077/1/3 1078/1/3 1074/1/3
f 1074/1/4 1078/1/4 1079/1/4 1075/1/4
f 1075/1/5 1079/1/5 1080/1/5 1076/1/5
f 1076/1/6 1080/1/6 1077/1/6 1073/1/6
f 1081/1/1 1082/1/1 1083/1/1 1084/1/1
f 1085/1/2 1088/1/2 1087/1/2 1086/1/2
f 1081/1/3 1085/1/3 1086/1/3 1082/1/3
f 1082/1/4 1086/1/4 1087/1/4 1083/1/4
f 1083/1/5 1087/1/5 1088/1/5 1084/1/5
f 1084/1/6 1088/1/6 1085/1/6 1081/1/6
f 1089/1/1 1090/1/1 1091/1/1 1092/1/1
f 1093/1/2 1096/1/2 1095/1/2 1094/1/2
f 1089/1/3 1093/1/3 1094/1/3 1090/1/3
f 1090/1/4 1094/1/4 1095/1/4 1091/1/4
f 1091/1/5 1095/1/5 1096/1/5 1092/1/5
f 1092/1/6 1096/1/6 1093/1/6 1089/1/6
f 1097/1/1 1098/1/1 1099/1/1 1100/1/1
f 1101/1/2 1104/1/2 1103/1/2 1102/1/2
f 1097/1/3 1101/1/3 1102/1/3 1098/1/3
f 1098/1/4 1102/1/4 1103/1/4 1099/1/4
f 1099/1/5 1103/1/5 1104/1/5 1100/1/5
f 1100/1/6 1104/1/6 1101/1/6 1097/1/6
f 1105/1/1 1106/1/1 1107/1/1 1108/1/1
f 1109/1/2 1112/1/2 1111/1/2 1110/1/2
f 1105/1/3 1109/1/3 1110/1/3 1106/1/3
f 1106/1/4 1110/1/4 1111/1/4 1107/1/4
f 1107/1/5 1111/1/5 1112/1/5 1108/1/5
f 1108/1/6 1112/1/6 1109/1/6 1105/1/6
f 1113/1/1 1114/1/1 1115/1/1 1116/1/1
f 1117/1/2 1120/1/2 1119/1/2 1118/1/2
f 1113/1/3 1117/1/3 1118/1/3 1114/1/3
f 1114/1/4 1118/1/4 1119/1/4 1115/1/4
f 1115/1/5 1119/1/5 1120/1/5 1116/1/5
f 1116/1/6 1120/1/6 1117/1/6 1113/1/6
f 1121/1/1 1122/1/1 1123/1/1 1124/1/1
f 1125/1/2 1128/1/2 1127/1/2 1126/1/2
f 1121/1/3 1125/1/3 1126/1/3 1122/1/3
f 1122/1/4 1126/1/4 1127/1/4 1123/1/4
f 1123/1/5 1127/1/5 1128/1/5 1124/1/5
f 1124/1/6 1128/1/6 1125/1/6 1121/1/6
f 1129/1/1 1130/1/1 1131/1/1 1132/1/1
f 1133/1/2 1136/1/2 1135/1/2 1134/1/2
f 1129/1/3 1133/1/3 1134/1/3 1130/1/3
f 1130/1/4 1134/1/4 1135/1/4 1131/1/4
f 1131/1/5 1135/1/5 1136/1/5 1132/1/5
f 1132/1/6 1136/1/6 1133/1/6 1129/1/6
f 1137/1/1 1138/1/1 1139/1/1 1140/1/1
f 1141/1/2 1144/1/2 1143/1/2 1142/1/2
f 1137/1/3 1141/1/3 1142/1/3 1138/1/3
f 1138/1/4 1142/1/4 1143/1/4 1139/1/4
f 1139/1/5 1143/1/5 1144/1/5 1140/1/5
f 1140/1/6 1144/1/6 1141/1/6 1137/1/6
f 1145/1/1 1146/1/1 1147/1/1 1148/1/1
f 1149/1/2 1152/1/2 1151/1/2 1150/1/2
f 1145/1/3 1149/1/3 1150/1/3 1146/1/3
f 1146/1/4 1150/1/4 1151/1/4 1147/1/4
f 1147/1/5 1151/1/5 1152/1/5 1148/1/5
f 1148/1/6 1152/1/6 1149/1/6 1145/1/6
f 1153/1/1 1154/1/1 1155/1/1 1156/1/1
f 1157/1/2 1160/1/2 1159/1/2 1158/1/2
f 1153/1/3 1157/1/3 1158/1/3 1154/1/3
f 1154/1/4 1158/1/4 1159/1/4 1155/1/4
f 1155/1/5 1159/1/5 1160/1/5 1156/1/5
f 1156/1/6 1160/1/6 1157/1/6 1153/1/6
f 1161/1/1 1162/1/1 1163/1/1 1164/1/1
f 1165/1/2 1168/1/2 1167/1/2 1166/1/2
f 1161/1/3 1165/1/3 1166/1/3 1162/1/3
f 1162/1/4 1166/1/4 1167/1/4 1163/1/4
f 1163/1/5 1167/1/5 1168/1/5 1164/1/5
f 1164/1/6 1168/1/6 1165/1/6 1161/1/6
f 1169/1/1 1170/1/1 1171/1/1 1172/1/1
f 1173/1/2 1176/1/2 1175/1/2 1174/1/2
f 1169/1/3 1173/1/3 1174/1/3 1170/1/3
f 1170/1/4 1174/1/4 1175/1/4 1171/1/4
f 1171/1/5 1175/1/5 1176/1/5 1172/1/5
f 1172/1/6 1176/1/6 1173/1/6 1169/1/6
f 1177/1/1 1178/1/1 1179/1/1 1180/1/1
f 1181/1/2 1184/1/2 1183/1/2 1182/1/2
f 1177/1/3 1181/1/3 1182/1/3 1178/1/3
f 1178/1/4 1182/1/4 1183/1/4 1179/1/4
f 1179/1/5 1183/1/5 1184/1/5 1180/1/5
f 1180/1/6 1184/1/6 1181/1/6 1177/1/6
f 1185/1/1 1186/1/1 1187/1/1 1188/1/1
f 1189/1/2 1192/1/2 1191/1/2 1190/1/2
f 1185/1/3 1189/1/3 1190/1/3 1186/1/3
f 1186/1/4 1190/1/4 1191/1/4 1187/1/4
f 1187/1/5 1191/1/5 1192/1/5 1188/1/5
f 1188/1/6 1192/1/6 1189/1/6 1185/1/6
f 1193/1/1 1194/1/1 1195/1/1 1196/1/1
f 1197/1/2 1200/1/2 1199/1/2 1198/1/2
f 1193/1/3 1197/1/3 1198/1/3 1194/1/3
f 1194/1/4 1198/1/4 1199/1/4 1195/1/4
f 1195/1/5 1199/1/5 1200/1/5 1196/1/5
f 1196/1/6 1200/1/6 1197/1/6 1193/1/6
