# generated by solar_farm_gz.site
v -6.1280 -12.3896 0.0200
v 64.5969 -12.3896 0.0200
v 64.5969 -8.3896 0.0200
v -6.1280 -8.3896 0.0200
v -6.1280 115.2997 0.0200
v 64.5969 115.2997 0.0200
v 64.5969 119.2997 0.0200
v -6.1280 119.2997 0.0200
v -8.1280 -10.3896 0.0200
v -4.1280 -10.3896 0.0200
v -4.1280 117.2997 0.0200
v -8.1280 117.2997 0.0200
v 62.5969 -10.3896 0.0200
v 66.5969 -10.3896 0.0200
v 66.5969 117.2997 0.0200
v 62.5969 117.2997 0.0200
vt 0.00000 0.00000
vt 11.78749 0.00000
vt 11.78749 1.00000
vt 0.00000 1.00000
vt 0.00000 0.00000
vt 11.78749 0.00000
vt 11.78749 1.00000
vt 0.00000 1.00000
vt 0.00000 0.00000
vt 1.00000 0.00000
vt 1.00000 21.28156
vt 0.00000 21.28156
vt 0.00000 0.00000
vt 1.00000 0.00000
vt 1.00000 21.28156
vt 0.00000 21.28156
vn 0.0000 0.0000 1.0000
f 1/1/1 2/2/1 3/3/1 4/4/1
f 5/5/1 6/6/1 7/7/1 8/8/1
f 9/9/1 10/10/1 11/11/1 12/12/1
f 13/13/1 14/14/1 15/15/1 16/16/1
