# generated by solar_farm_gz.site
v -9.1280 -13.3896 0.0000
v 67.5969 -13.3896 0.0000
v 67.5969 -13.3896 2.1000
v -9.1280 -13.3896 2.1000
v 67.5969 -13.3896 0.0000
v 67.5969 120.2997 0.0000
v 67.5969 120.2997 2.1000
v 67.5969 -13.3896 2.1000
v 67.5969 120.2997 0.0000
v -9.1280 120.2997 0.0000
v -9.1280 120.2997 2.1000
v 67.5969 120.2997 2.1000
v -9.1280 120.2997 0.0000
v -9.1280 -13.3896 0.0000
v -9.1280 -13.3896 2.1000
v -9.1280 120.2997 2.1000
vt 0.00000 0.00000
vt 54.80351 0.00000
vt 54.80351 1.00000
vt 0.00000 1.00000
vt 0.00000 0.00000
vt 95.49241 0.00000
vt 95.49241 1.00000
vt 0.00000 1.00000
vt 0.00000 0.00000
vt 54.80351 0.00000
vt 54.80351 1.00000
vt 0.00000 1.00000
vt 0.00000 0.00000
vt 95.49241 0.00000
vt 95.49241 1.00000
vt 0.00000 1.00000
vn 0.0000 -1.0000 0.0000
vn 1.0000 -0.0000 0.0000
vn 0.0000 1.0000 0.0000
vn -1.0000 -0.0000 0.0000
f 1/1/1 2/2/1 3/3/1 4/4/1
f 5/5/2 6/6/2 7/7/2 8/8/2
f 9/9/3 10/10/3 11/11/3 12/12/3
f 13/13/4 14/14/4 15/15/4 16/16/4
