# generated by solar_farm_gz.pv_mesh (materials from SDF)
v -1.0500 -5.3400 0.0000
v 1.0500 -5.3400 0.0000
v 1.0500 -4.2900 0.0000
v -1.0500 -4.2900 0.0000
v -1.0500 -4.2700 0.0000
v 1.0500 -4.2700 0.0000
v 1.0500 -3.2200 0.0000
v -1.0500 -3.2200 0.0000
v -1.0500 -3.2000 0.0000
v 1.0500 -3.2000 0.0000
v 1.0500 -2.1500 0.0000
v -1.0500 -2.1500 0.0000
v -1.0500 -2.1300 0.0000
v 1.0500 -2.1300 0.0000
v 1.0500 -1.0800 0.0000
v -1.0500 -1.0800 0.0000
v -1.0500 -1.0600 0.0000
v 1.0500 -1.0600 0.0000
v 1.0500 -0.0100 0.0000
v -1.0500 -0.0100 0.0000
v -1.0500 0.0100 0.0000
v 1.0500 0.0100 0.0000
v 1.0500 1.0600 0.0000
v -1.0500 1.0600 0.0000
v -1.0500 1.0800 0.0000
v 1.0500 1.0800 0.0000
v 1.0500 2.1300 0.0000
v -1.0500 2.1300 0.0000
v -1.0500 2.1500 0.0000
v 1.0500 2.1500 0.0000
v 1.0500 3.2000 0.0000
v -1.0500 3.2000 0.0000
v -1.0500 3.2200 0.0000
v 1.0500 3.2200 0.0000
v 1.0500 4.2700 0.0000
v -1.0500 4.2700 0.0000
v -1.0500 4.2900 0.0000
v 1.0500 4.2900 0.0000
v 1.0500 5.3400 0.0000
v -1.0500 5.3400 0.0000
vt 0.000000 1.000000
vt 0.000000 0.500000
vt 0.200000 0.500000
vt 0.200000 1.000000
vt 0.200000 1.000000
vt 0.200000 0.500000
vt 0.400000 0.500000
vt 0.400000 1.000000
vt 0.400000 1.000000
vt 0.400000 0.500000
vt 0.600000 0.500000
vt 0.600000 1.000000
vt 0.600000 1.000000
vt 0.600000 0.500000
vt 0.800000 0.500000
vt 0.800000 1.000000
vt 0.800000 1.000000
vt 0.800000 0.500000
vt 1.000000 0.500000
vt 1.000000 1.000000
vt 0.000000 0.500000
vt 0.000000 0.000000
vt 0.200000 0.000000
vt 0.200000 0.500000
vt 0.200000 0.500000
vt 0.200000 0.000000
vt 0.400000 0.000000
vt 0.400000 0.500000
vt 0.400000 0.500000
vt 0.400000 0.000000
vt 0.600000 0.000000
vt 0.600000 0.500000
vt 0.600000 0.500000
vt 0.600000 0.000000
vt 0.800000 0.000000
vt 0.800000 0.500000
vt 0.800000 0.500000
vt 0.800000 0.000000
vt 1.000000 0.000000
vt 1.000000 0.500000
vn 0.0000 0.0000 1.0000
f 1/1/1 2/2/1 3/3/1 4/4/1
f 5/5/1 6/6/1 7/7/1 8/8/1
f 9/9/1 10/10/1 11/11/1 12/12/1
f 13/13/1 14/14/1 15/15/1 16/16/1
f 17/17/1 18/18/1 19/19/1 20/20/1
f 21/21/1 22/22/1 23/23/1 24/24/1
f 25/25/1 26/26/1 27/27/1 28/28/1
f 29/29/1 30/30/1 31/31/1 32/32/1
f 33/33/1 34/34/1 35/35/1 36/36/1
f 37/37/1 38/38/1 39/39/1 40/40/1
